<svg id="logo_Le_Rucher" data-name="logo Le Rucher" xmlns="http://www.w3.org/2000/svg" xmlns:xlink="http://www.w3.org/1999/xlink" width="128.017" height="63.746" viewBox="0 0 128.017 63.746">
  <defs>
    <clipPath id="clip-path">
      <rect id="Rectangle_1" data-name="Rectangle 1" width="128.017" height="63.746"/>
    </clipPath>
  </defs>
  <g id="Groupe_1" data-name="Groupe 1" transform="translate(0 0)" clip-path="url(#clip-path)">
    <path id="Tracé_1" data-name="Tracé 1" d="M121.826,28.282c-1.64-.167-3.683-.22-5.444-.523-7.551-.82-15.691-1.827-22.664-3.87a22.447,22.447,0,0,1-6.18-4.569c-.624-.983-2.257-1.9-3.232-2.886-1.019-1.08-2.306-1.243-2.674-2.551a1.9,1.9,0,0,0-.411-.474,3.041,3.041,0,0,1,.145-1.435c.1-.737.394-1.6.588-2.5.262-1.21-.263-1.667-.724-2.687C80.26,4.017,77.553,2.211,75.022,0a13.878,13.878,0,0,1-1.369,2.112,6.378,6.378,0,0,0-.907,1.134,1.147,1.147,0,0,0-.171.252c-.862,1.944,1.894,2.825.985,4.394A57.019,57.019,0,0,1,55.233,26.623C51.184,29.7,46.339,31.9,41.944,34.466c-1.4.818-3.271,1.815-5.19,2.986-.666.407-.232.974.68.711a21.935,21.935,0,0,0,3.937-1.589,8.319,8.319,0,0,0,2.555-1.219,11.678,11.678,0,0,0,1.738-.726c.852-.455,1.9-1.224,2.723-1.729a16.674,16.674,0,0,0,3.237-1.7c2.171-.734,4.5-2.313,6.671-1.93,0,0,3.217-.666,4.4-1.562a4.42,4.42,0,0,1,1.652-1.262c.336-.337,1.356-1.014,1.745-1.314A19.136,19.136,0,0,1,70.2,23.82c.459-.3,1.451-.932,1.935-1.192,1.967-.472,2.943-2.618,4.9-3.074A6.83,6.83,0,0,0,78.5,18.075c.117-.132.278-.66.407-.824.206.13.317-1.057.46-.972a2.944,2.944,0,0,0,1.251,1.6c.315.865,2.465,3.373,4.2,6.295,2.157,2.8,2.931,4.952,3.509,5.146.25.72,3.624,2.866,4.007,3.241a10.765,10.765,0,0,1,2.584,1.511,3.66,3.66,0,0,1,1.6.806,12.026,12.026,0,0,0,2.224.807c1.379-.071,2.669.844,3.971,1l2.168.528.793.048c1.48.142,4.252.468,6.534.723.68.076,2.2-.209,2.561-.787a1.258,1.258,0,0,1,1.274-.711c1.406-2.756,2.314-1.98,3.685-3.223.14-1.1,4.85-4.7,2.1-4.985" transform="translate(-15.393 0)"/>
    <path id="Tracé_2" data-name="Tracé 2" d="M123.1,83.565a14.021,14.021,0,0,1,1.688-2.061h-.023c.023-.023-.046-.023.046-.023.19-.049,1.216-.721,1.209-.634.137-.09.137-.09.251-.09.091.022.319.294.205.452-.182.295-.616,1.132-.867,1.223a2.723,2.723,0,0,0-.684.43,10.854,10.854,0,0,1-2.235.7c-.228.068.571.068.411,0m-10.286-3.691c.068.023.456-.045.342-.068.137-.114.114-.091.069-.136l-.388-.453c.012-.314-.245-.275-.365-.544a.627.627,0,0,1-.091-.113c0-.136,0-.091-.023-.136v-.136c0-.023-.114-.114-.159-.159.036-.052.014-.072-.023-.158-.068-.162.05-.164-.182-.272.023.022-.023-.136-.023-.2-.023-.091-.046-.091-.137-.114.091-.113-.137-.272-.319-.43-.033-.04-.359-.124-.411-.159l.046-.022a.886.886,0,0,0-.752-.114l-.023-.022-.091.136c-.068,0-.091-.023-.046.113-.114.068-.091.068-.046.136-.039.132.087.271.319.5-.091.068-.023.045.069.068,0,.158-.023.113.091.158-.069.068.114.226.205.339a.878.878,0,0,0,.319.362c-.114,0,.046.136.205.272.127.179.852.906,1.027.906l.251.226h.159a.022.022,0,0,0-.022.022M108.6,88.455a9.6,9.6,0,0,0,2.987-1.359,10.424,10.424,0,0,1,1.232-.815c-.144.633-.21,1,.524,1.426a.965.965,0,0,0,.935.385A.455.455,0,0,0,114.6,88c.157-.233.015-.209.046-.43-.061-.093.11-.091.046-.226a2.163,2.163,0,0,1,.182-1.155,29.05,29.05,0,0,1,1.049-3.17c.068-.2.182-.974.752-.928.053.037.631.138.684.158-.091.068.205.385.205.634l-.319,1.019a.475.475,0,0,0-.046.339,2.013,2.013,0,0,1-.137.77c0,.226.023.5-.136.656l.046.023c-.278.021-.13.433-.228.294-.085.436,0,.734-.274,1.109a1.107,1.107,0,0,0-.114,1.019c0,.022.069-.023.091,0,.136.144.478.092.616.022.043-.022.213-.065.228-.045l-.091-.022a.291.291,0,0,1,.091.022,3.612,3.612,0,0,0,.411-.385l-.091.022c-.014-.028.093-.068.114-.091a4.786,4.786,0,0,1,.387-.294c.259-.206.419-.526.684-.634a2.315,2.315,0,0,0,.616-.475,15.052,15.052,0,0,1,2.19-1.381c-.319-.136-.89-.136-.89.068-.013.97.136,2.2,1.3,2.581.2.218.7.215,1,.362.417.21.766-.038,1.163-.045a.3.3,0,0,1,.228,0c.006,0,.089-.114.069-.113l.479-.159a.683.683,0,0,0,.433-.091,6.614,6.614,0,0,0,1.847-1.268l-.023-.045c.243-.3.732-.7.57-1-.187-.5-.83-.107-.981.068l-.206.316a.153.153,0,0,0-.159.091,1.063,1.063,0,0,0-.411.249l-.046-.023a3.2,3.2,0,0,1-1,.612c-.595.307-.551.275-1.5.317-.769-.174-.765-2.055-.456-2.468a5.757,5.757,0,0,0,2.007-.566c.763-.271,1.1-.941,1.734-1.246.727-.422,1.352-1.461,1.254-1.721l-.114.045h.091c.044-.37-.168-.628-.571-.951-3.764-.118-4.392,1.958-6.112,3.962-.492.771-1.924,1.337-2.395,1.879-.046,0-.228.091,0-.022.091.136-.023-.045-.046-.091l-.046.045c.069.022.023-.408.023-.43.083-.65.442-1.546.593-2.2.12-.727.83-1.52,0-2.084-.019,0-.073.032-.091.023l.068-.023c-.916-.625-1.406-.157-2.258.159-.41.43-.387.453-1.026.521-.538.015-.572.1-.639.272l.069.023c-.137.022.661.5.661.362a6.85,6.85,0,0,1,.16-1.246c.1-.3.362-.688.319-.815.012-.062-.025-.407-.023-.476a1.245,1.245,0,0,0-1.163.136,1.523,1.523,0,0,0-.593.657c-.565.2-.765.625-1.209.905-.144.106-.136.174,0,.295a3.105,3.105,0,0,0,.342.317c.538.348-.009.91-.068,1.336a3.452,3.452,0,0,1-.388,1.177c-.206.476-.456,1.064-.525,1.314-.182.521,1.619-1.426.867-.974-.633.267-1.15.724-1.711,1.019a15.6,15.6,0,0,1-2.3,1c-.456.181-1.588.593-1.619-.135-.047-.377-.195-1.1.023-1.426l-.046-.023a8.455,8.455,0,0,0,3.444-1.834c.059-.144.4-.311.456-.385.23-.118.217-.335.251-.544a1.191,1.191,0,0,0,.342-.928c.1-.655-.667-1.272-1.346-1.4-.707-.022-.8-.136-.639,0-.044,0-.219.076-.205.091a2.258,2.258,0,0,0-1.323.77c-.046.068,0,.045-.091.091-.046.022-.159.091-.159.068l-.137.181c.251,0,0-.022-.046.045-.023.045-.023.114-.046.136a1.573,1.573,0,0,0-.73.612c-.084.159-.309.182-.274.385.068-.045.046.113.046.2a3.844,3.844,0,0,0-.456.815c-.166.554-.523,1.056-.684,1.54a.245.245,0,0,1,.228-.091.022.022,0,0,0-.023-.023c-.17.1-.153.269-.251.431-.137.226-.274.294-.114.5.133.158.044.675.068.951.144.507.115.857.684,1.155-.068.023.091.226.274.226.046.023.387.045.365.091.169-.023.49.134.684.045m-.639-12.069-2.577,2.808a1.638,1.638,0,0,1,.274-1.2c.163-.146.214-.421.319-.588.064-.223.288-.467.251-.679a.228.228,0,0,1,.069-.2,13.719,13.719,0,0,0,1.117-1.472,5.862,5.862,0,0,1,.684-.905c.33-.432.783-1.215,1.277-1.245.24.017.232-.023.411-.159.284-.12.479-.009.776-.045-.149.085-.148.074,0,.159-.114,0-.114,0-.046.091-.484,1.491-1.645,2.4-2.554,3.441m.433,8.56c-.114-.408,1.072-2.468,1.209-2.695.27-.321.706-.683.936-.974.277-.307.46-.256.8-.226a1.64,1.64,0,0,1,.114.634c0,.045.069.068.023.091s-.206,0-.137.068c-.114.091-.16.136-.114.159-.205.407-.387.769-.5,1.041-.2.077-.351.186-.365.362l.068.023c-.546.058-.573.7-1.049.679l-.091-.022-.114.158a1.648,1.648,0,0,1-1.072.453c-.319-.045.365.544.3.249M103.308,88.3c.275.011.513-.018.776-.023.215-.006.417.154.639.023.386-.276,1.612-.908.889-1.359-.505-.293-1.164.3-1.619.453-1.086.3-1.372-1.088-1.049-1.925.045-.091.045-.022.045-.113a.3.3,0,0,0,.023-.114l.068-.521c-.091-.045-.114-.068-.114-.091-.091.2.182.249.205.045a5.8,5.8,0,0,1,.16-1.042c.576-.808.177-.667.433-1.132a1.042,1.042,0,0,0,.319-.815,1.287,1.287,0,0,1,.342-.838,4.718,4.718,0,0,1,.228-.431c.342-.283.876-.653,1.095-.792l.069.022c.068-.068.228-.249.228-.249h-.023a6.246,6.246,0,0,0,.57-.589,27.681,27.681,0,0,0,2.349-2.242c.137-.068.274-.181.16-.2a5.286,5.286,0,0,0,.684-.838c.412-.151.545-.875.8-1.155a2.873,2.873,0,0,0,.844-1.449l-.228.023c0,.022.091.09.068.09l.114-.068c.023-.566.046-1.109-1.117-1.449a3.686,3.686,0,0,0-2.6,1.065c-.136.136.069.226-.228.068a.975.975,0,0,1-.046.272l.046.023c-.1.109-1.221,1.139-1.277,1.222s-.1.21-.137.136a3.905,3.905,0,0,1-.57.883,3.851,3.851,0,0,0-.319.544c-.137.295-.16.589-.206.475a1.274,1.274,0,0,0-.5.748c-.286.644-.644,1.312-.912,1.9-.238.542-.673,1.362-.889,1.879-.16.249-.3.43-.228.725-.128.39-.9,2.217-1.049,2.558l-.023-.045a6.65,6.65,0,0,0,.274,3.17c0,.641,1,1.121,1.71,1.155m-7.252.045a1.532,1.532,0,0,0,1.072-.181s-.023.045-.046.022l.023-.068-.046-.045a7.926,7.926,0,0,0,1.186-.929c.108-.147.5-.76.616-.883a4.512,4.512,0,0,0,.684-1.177,6.22,6.22,0,0,0,.342-.657.741.741,0,0,0,.114-.408c0-.5.342-.838.639-.747a.664.664,0,0,0,.342.045c.137-.091.16.045.251-.045a.172.172,0,0,0,.114.045c-.069-.022-.023.317-.023.5.023.226,0,.114.137.475l.867-2.105c-.407.073-.386.642-.821.634-.091,0-.364,0-.228.045-1.672.111-.276-1.851-2.577-2.264a1.909,1.909,0,0,0-.935.339,2.946,2.946,0,0,0-1.141.77,7.677,7.677,0,0,0-1.961,3.125,3.433,3.433,0,0,0-.274.679c-.827,1.273.752,3.246,1.665,2.831m.3-1.223c-.2.091-.3.136-.456-.158,0,.113-.114-.181-.182-.431a1.592,1.592,0,0,1,.16-.5c.118-.36.241-.667.433-1.109.221-.507.363-.924.57-1.313a11.832,11.832,0,0,0,.639-1.019,3.2,3.2,0,0,1,.661-1.041c.046-.045.046-.045.091.022a3.164,3.164,0,0,1,.547,1.631,4.931,4.931,0,0,1-.707,2.174,4.393,4.393,0,0,1-1.756,1.744m-7.161,1.245a4.432,4.432,0,0,0,2.1-1.291,1.464,1.464,0,0,1,.411-.521l.342-.362a5.45,5.45,0,0,0,.844-1.042L92.84,85.1c.16.014.387-.447.479-.544.111-.182.31-.445.41-.611a16.9,16.9,0,0,0,1.346-1.992,5.1,5.1,0,0,0,.981-1.812.454.454,0,0,0-.479-.158c-.366-.035-.752.725-.638.747l-.867.838a1.823,1.823,0,0,1-.662.838c-.023.023-.068-.022-.023.068-.207.29-.7,1.111-.912,1.359a8.9,8.9,0,0,1-1.14,1.268c-.069.091-.182.249-.182.249a22.372,22.372,0,0,1-1.825,1.879c.023,0,.935.045.8.045a3.739,3.739,0,0,1-.251-.883,4.188,4.188,0,0,1,.182-1.721,3.724,3.724,0,0,0,.205-.951,1.847,1.847,0,0,1,.16-.679c.15-.131.063-.191.114-.339.222-.493.555-.73.479-1.268.018-.537-.981-.584-1.254-.339a17.119,17.119,0,0,0-1.688,4.755,3.113,3.113,0,0,0-.068,1.042c.143,1.248-.12.708.592,1.2.274.317.251.2.319.226a.978.978,0,0,0,.274.045M78.427,77.79l.205.045c0-.068.046-.091.114-.114.088,0,.258-.177.364-.249.146-.128.42-.51.456-.43,0-.045.958-1.245.912-1.2.121-.165.363-.381.342-.566a.755.755,0,0,0,.3-.43.71.71,0,0,0-.137-.906c.068-.136-.069-.158-.16-.158.04-.323-.1-.415-.41-.5-.091,0-.319-.023-.3.113l-.228.634-.411.906c-.135.055-.081.165-.159.272a1.831,1.831,0,0,0-.3.634c-.183.158-.319.316-.3.5-.137.091-.182.136-.205.272a.541.541,0,0,1-.069.159c-.278.226-.179.735-.023,1.019M82.395,88.7c.409,0,.815-.012,1.232,0,.114-.022.069-.045.228.045a1.349,1.349,0,0,1,.684-.226c.094,0,.183-.049.251,0a7.434,7.434,0,0,0,.776-.317c.114-.159.752-.159.593-.226.137-.159.114-.159.205-.181,0-.023.046-.023.046-.023.456-.068.365-.2.365-.2a1.038,1.038,0,0,1,.616-.385c.04-.337.249-.222.434-.385l.046.068c-.022-.193.174-.134.068-.181.091-.114.16-.226.16-.2l-.046-.022c.3-.136.159-.657.068-.544a5.5,5.5,0,0,1-.958.611,5.023,5.023,0,0,1-1.094.589c-.569.226-1.078.229-1.619.408a.232.232,0,0,1-.206.068,6.065,6.065,0,0,1-1.482-.045c-.7-.205-.724-1.342-.616-2.061a1.856,1.856,0,0,1,.114-.747c.128-.267.147-1.054.319-1.109a.034.034,0,1,1,0-.068,1.986,1.986,0,0,0,.365,0c.2-.062.233-.1.365-.091.342.037.7-.174.958-.181.137-.01.335.025.479,0a.679.679,0,0,0,.3-.045c.3-.192.482-.088.775-.136a1.282,1.282,0,0,1,.411-.068.944.944,0,0,0,.547-.091c.222.026.177-.135.3-.113a.454.454,0,0,0-.114-.114c-.023,0,.046-.091.046-.158.02-.142.054-.2.159-.249V82.3c-.264.022-.446-.126-.752-.045-.031-.155-.554-.145-.616-.022.274.091.091.022.023,0a2.422,2.422,0,0,0-.319-.068c-.454-.016-.322.248-.844,0-.29-.015-.75.009-1.049,0l-.319.114c-.114.045.046.022-.069-.159a6.009,6.009,0,0,1,.5-1.019c.342-.589.821-1.495,1.117-1.925a2.229,2.229,0,0,0,.434-.838.307.307,0,0,1,.159,0c.023-.023.068-.091.023-.068.428-.276,1.345-.077,1.642-.385a2.248,2.248,0,0,0,.707-.068l-.091.045c-.046.023.046-.022.091-.022l.023-.068a.969.969,0,0,1,.228-.045c.068-.022-.023-.022.182-.022.032-.045.132-.009.159-.045,0,.022-.091-.045-.068-.022.071.044.73.051.479-.091h.046c-.023.091.159.045.182.045.044-.037.052-.019.091-.023a.878.878,0,0,1,.547-.068c.068-.068.068-.068.023-.091.487.2.623-.224.639-.566,0-.113.023-.294,0-.091a.3.3,0,0,0-.433-.022,20.194,20.194,0,0,0-2.44.226c-.044-.092-.225.014-.319,0-.533.1-1.078.192-1.551.249-.512-.033-.982.149-1.482.159a3.264,3.264,0,0,0-.8.068c-.279.065-.536.194-.776.226a1.314,1.314,0,0,0-.387.113c-.213.018-.262.186-.5.045-.12.265-.092.2-.228.2a4.855,4.855,0,0,0-.593.294l-.046-.022c-.023.045.023.068-.023.113-.023,0-.114.068-.091.023-.2.327.239.29.159.77l.114-.068c.2,0,.413-.132.57-.113a.453.453,0,0,0,.365-.023.656.656,0,0,0,.5-.022c.023,0,.091-.023.046-.023.315.012.441-.308.57.091a4.323,4.323,0,0,0-.729,1.2c-.385.758-.655,1.309-.936,1.993.017-.213-.2.2-.251.2-.121-.023-.351.111-.365.2-.251,0-.033.079-.228.023-.038.037-.069.086-.114.136-.3.249-.319.226-.251.385,0,.181.091.317.616.544a7.524,7.524,0,0,0-.137,3.419,2.474,2.474,0,0,0,1.529,1.449c-.046.045.159.045.228.045Zm-10.719.023a.822.822,0,0,0,.684-.2c.392-.394.752-.695.729-1.155a6.7,6.7,0,0,1,.547-2.151.338.338,0,0,1,.091-.181c.376-.409.12-1.236.479-1.676,0-.022.046,0,.046-.045a.523.523,0,0,1,.023-.091,2.048,2.048,0,0,1,.319-.951h-.023l.114-.091a5.278,5.278,0,0,1,.479-1.042,1.376,1.376,0,0,0,.342-.77c0-.068-.023-.158.046-.136a9.054,9.054,0,0,0,.752-1.653,1.11,1.11,0,0,1,.068-.679c-.114.249.206.023.319-.2a9.906,9.906,0,0,0,.479-.906c.047-.238.079-.681.274-.792a3.875,3.875,0,0,0,.046-.634c-.293-.29-1.138.1-1.232.385a3.918,3.918,0,0,0-.342.588,8.617,8.617,0,0,0-.753,1.517l.206-.022V77.79l-.228.022a3.294,3.294,0,0,0-.114.362c-.09.23-.2.484-.251.634a.881.881,0,0,0-.319.566c-.007.044.053.076,0,.114a6.987,6.987,0,0,0-.661,1.291.022.022,0,0,1,.023-.022,2.775,2.775,0,0,1-.319.769,2.993,2.993,0,0,0-1.756.317,5.445,5.445,0,0,0-2.075,1.925,3.045,3.045,0,0,0-.411.77,4.44,4.44,0,0,0-1.027,3.17c.532.87,1.382.822,2.167.249.217-.124.95-.72,1.163-.86a.294.294,0,0,1,.137-.023c-.08.2-.048.476-.159.838-.062.423-.3.714.137.815m-.57-1.9c-1.9,1.439-.7-2.137-.091-2.6.1-.118.53-.686.616-.77.5-.564.535-1.343,1.368-1.245-.169,0,.122-.013.137-.045a10.062,10.062,0,0,1-1.163,3.419,2.649,2.649,0,0,0-.547.974,4,4,0,0,0-.319.272M54.959,82.976a2.724,2.724,0,0,1-.753-.362,7.288,7.288,0,0,1,.776-1.223,5.053,5.053,0,0,0,.8-.815c.206-.111.177-.437.479-.453a3.193,3.193,0,0,1-.251,1.675c-.444.514-.218,1.5-1.049,1.178M39.154,88.636c1.321-.39,2.71-1.065,3.193-2.264l.069-.023c-.012-.278.024-.595.023-.86-.233.177-.625-.092-.821.226.069.091,0,.023-.023.068,0,.045.068.181-.023.136a3.5,3.5,0,0,1-.57.521c-.35.421-1.04.639-1.414.951l-.936.113a2.725,2.725,0,0,1,.365-1.472,7.244,7.244,0,0,1,.821-2.083,9.379,9.379,0,0,0,.57-.861s.091.023.091-.068h.114a5.632,5.632,0,0,1,0,1.155c.125-.144.4.046.524-.045.532.046.214-.041.5-.566.046-.068.068-.023.068-.068-.017-.526.061-1.046,0-1.562-.278-.743-1.581.192-2.144.385-.17.091-.3.355-.411.431a8.376,8.376,0,0,0-1.117,1.268c-.133.2-.341.407-.456.611a5.1,5.1,0,0,1-2.668,2.355c-.334-.488.191-1.126.319-1.472.159-.475.273-.883.364-1.268.12-.327.155-.5.251-.792.191-.5.665-1.424.5-1.721-.023-.068-.5-.295-.593-.114-.121.056-.386.147-.411.226-.309.074-.4.269-.57.34l.046.045c-.137.113-.182.091-.182.249a1.56,1.56,0,0,0-.3.77.851.851,0,0,1-.023.249c0,.023.046.136-.023.068,0,.58-.346.941-.479,1.381-.131.324-.3.628-.433.544a1.535,1.535,0,0,1-.3.271l.046.045a12.087,12.087,0,0,0-1.163.566.694.694,0,0,1-.707.272c-.317-1.225.456-2.773.821-3.94.138-.423.556-.851.434-1.381a4.448,4.448,0,0,0-1.323.272c-.3.269-.721.451-.616.747a.641.641,0,0,0-.182.385l-.159.385c.065.034.039.061.023.113.011.108-.12.271-.091.34-.358,1-.417,1.371-.616,2.06a3.208,3.208,0,0,0-.16,1.857,1.154,1.154,0,0,0,.753.544,2.716,2.716,0,0,0,1.437-.159c.2-.042.354-.353.456-.43.379-.341.778-.758,1.095-1.064.1-.3.326.363.365.566,0,.2.234.375.365.566.168.188.446.132.639.136a3.714,3.714,0,0,0,.844-.045l-.023.023c.395-.21.357-.269.525-.181a1.537,1.537,0,0,1,.068-.181h-.023c.548-.536.84-.887,1.459-1.585-.766,1.964-.807,3.306,1.8,2.967m-14.117-8.6c.334-.765.74-1.875,1.142-2.6a3.174,3.174,0,0,1,.456-.932,2.9,2.9,0,0,1,1.481-.222c.463.08.534.522.456,1.042a1.689,1.689,0,0,1-.5,1.222c-.045.123-.7.677-.571.521a4.443,4.443,0,0,1-2.463.974m6.158,14.174c1.475.32,3.269-.913,3.991-1.2.192-.076.346-.132.365-.272.091-.249-.137-.339-.433-.339-.3-.023-.616.113-.661.272a2.348,2.348,0,0,0-.434.339c-.067.022-.845.474-.912.408.028-.2-.342.068-.616,0a2.074,2.074,0,0,0-.844.045c-.221.029-.559-.349-.8-.385-.592.015-.562-.414-.821-.34l.091-.022c-.156-.17-.532-.56-.752-.748a2.193,2.193,0,0,0-.3-.452c-.175-.477-.572-.983-.752-1.54-.023-.091-.137-.5-.205-.792-.155-.638-.22-1.042-.319-1.653a5.424,5.424,0,0,1-.228-1.676c-.087-.7-.131-1.567-.16-2.241a3.382,3.382,0,0,0-.205-1.4,3.184,3.184,0,0,0-.433-1.517c1.731-.573,4.066-2.639,3.5-4.312-.253-.745-1.461-1.033-2.175-.964a5.3,5.3,0,0,0-1.733.2,6.025,6.025,0,0,1-1.369.136l-.228.2c-.137.249-.228.339-.319.362h-.068c-.023.022.023.022.023.022a1.207,1.207,0,0,0-.592.2c-.229.158-.593.237-.73.408-.189.335-.914.586-1.254.7l-.023-.022c-.159.271-.114.316.046.611.069.226,1.323.113,1.346-.068.154.045-.033-.17.091-.136.088-.11.437-.256.479-.317.251-.43,1.049-.362,1.346-.362.411,0-.137-.544-.251-.34-.046.159,0,.181-.137.2-.068.022-.251.045-.274.091-.244.632-.871,2.284-1.117,2.875-.183.263-.122.712-.274.951a4.826,4.826,0,0,1-.159.611,22.909,22.909,0,0,0-1.072,2.717,3.264,3.264,0,0,0-.411.929,1.208,1.208,0,0,1-.114.656,1.284,1.284,0,0,0-.3.656,3.51,3.51,0,0,0-.023,1.54c.234.466,1.241.337,1.46-.181.14-.622.2-1.2.319-1.789.118-.054.4-1.247.524-1.449.267-.877.644-1.693.935-2.513a7.99,7.99,0,0,1,.479-1.495c.875.344.631,1.178.912,2.355a10.045,10.045,0,0,1,.023,2.106,11.2,11.2,0,0,0,.479,3.284c.056.206.2.755.182.747A8.094,8.094,0,0,0,27.682,92.3a7.865,7.865,0,0,0,1.505,1.426c.022.243.476.218.684.272a3.593,3.593,0,0,0,1.322.2M10.92,83.021c-.068,0-.57-.136-.456-.317l.684-1.132.159-.226c.165-.753.692-.976,1.209-1.222.136,0,.353.6.137.86a1.865,1.865,0,0,0-.251.5c-.176.439-.346.873-.524,1.245-.182.453-.5.362-.958.295M1.706,88.614l1.277-.249a.663.663,0,0,1,.046-.2l-.023-.023a8.222,8.222,0,0,0,1.3-.5,1.438,1.438,0,0,1,.547-.362,14.734,14.734,0,0,0,3.33-2.264c.068-.091-.684.045-.616.226.044.1.2,1.055.251,1.178A3.541,3.541,0,0,1,8,87.323l.365.544a.589.589,0,0,1,.137-.045H8.434c1.461.989,3.881.255,5.109-.521.13-.061.444-.311.524-.362l.023.023.023-.023a5.382,5.382,0,0,0,1.528-1.992,1.311,1.311,0,0,0,.342-1.064c0,.022-.206-.091-.251-.091a.809.809,0,0,0-.228.045c-.068.022-.228.271-.182.249a4.572,4.572,0,0,0-1.14,1.426c-.168.109,0,.5-.182.521-.365.068-2.121,1.064-2.486.951-.319.068-.524.091-.776.136-.531.058-1.236.265-1.277-.249-.023-.113-.023-.068-.091-.158a.873.873,0,0,1,0-.679c.086-.581.049-1.643.433-2.038a3.046,3.046,0,0,0,.752.294,1.184,1.184,0,0,0,.867-.181c.234-.153,1.364-.492,1.46-.747a3.794,3.794,0,0,0,.456-.725,3.277,3.277,0,0,0,1.072-1.562c.381-.665.221-1.863-.8-1.969a1.194,1.194,0,0,0-1.3.2,2.558,2.558,0,0,0-1.049.611,1,1,0,0,1-.319.295,3.891,3.891,0,0,0-1.118.974c-.244.376-.6.678-.821,1.019A10.776,10.776,0,0,1,8.3,83.383a2.794,2.794,0,0,1-.889,1.268l-.776.566c-.28.116-1.2.493-1.322.566a7.082,7.082,0,0,1-3.717.906,19.868,19.868,0,0,1,1.163-3.034,16.209,16.209,0,0,1,.593-1.879l.023.022a.926.926,0,0,0,.251-.747,2.526,2.526,0,0,0,.16-.408,3.235,3.235,0,0,0,.205-.408s-.182.091-.114.114a7.225,7.225,0,0,1,.411-.77c.343-.815.819-1.609,1.117-2.355l-.114.091c.043.037.412-.723.434-.725.223-.359.335-.487.342-.792a15.048,15.048,0,0,0,1.254-1.676c.193-.253.081-.445.046-.725-.023-.068-.159-.091-.319-.091-.592-.022-.752.2-.821.295-.155.546-.889.662-.89,1.177,0-.022-.023,0-.114.136l-.206.2-.342.656c-.471.781-1.034,1.65-1.459,2.423-.023.045,0,.045-.046.068-.023.045-.114.159-.114.136a2.691,2.691,0,0,1-.524,1.087v.045c-.023.022-.023-.045-.023,0l-.205.883a14.841,14.841,0,0,0-1.141,2.808A11.309,11.309,0,0,0,.11,85.806c-.325.608.2,1.534-.023,2.242-.17.438.506.42.867.431a1.181,1.181,0,0,1,.456.068c.082.04.227.1.3.068m60.118.022c.295-.1.99-.06,1.232-.362,1.347-.7,1.495-1.005,2.029-1.222l.114-.045c.433-.722,1.031-1.185,1.232-1.7.2-.532.62-.918.41-1.426a.979.979,0,0,0-.205-.295c-.139.041-.37-.022-.547.181a3.848,3.848,0,0,1-.365.611c-.531.662-1.239,1.054-1.459,1.721a1.518,1.518,0,0,1-.16.091c-.023.022,0,.045-.046.068-.114.045-.114,0-.274.159-.146.1-.466.188-.547.249a2.153,2.153,0,0,1-.525.317c-.046.091-.046.113-.137.136-.588.343-1.395.485-1.117-.453a3.641,3.641,0,0,1,.206-1.7,1.27,1.27,0,0,0,.205-.861c.113-.143.681-1.6.844-1.562l.206-.022a5.2,5.2,0,0,0,.479-.747c.482-.89.432-.464.159-1.381l-.023.022a2.024,2.024,0,0,0-.228-.226c-.033-.333-1.1-.343-1.459-.294-.415.1-.1-1.26-.137-1.495.342-.136.3-.181.273-.317.012-.507.31-.875-.387-1.336-.17-.032-.535-.111-.661.023-.046.045-.023.113-.114.113-.046.068-.091.136-.046.136-.961.294-1.069,1.478-1.209,2.2,0,.068.091.249.479.339l-.091.068c0,.045.205.339.387.679a2.749,2.749,0,0,1-.159.475c-.106.288-.349.683-.434.928a20.667,20.667,0,0,1-1.437,1.948c-.373.441-.628,1.078-.981,1.336-.21.213-.612.454-.8.611a4.862,4.862,0,0,1-1.346.906c-.848.279-.523.53-.776.544a8.335,8.335,0,0,0-1.186.2c-.2.022-.137-.023-.228-.249a.175.175,0,0,1-.046-.114c-.1-.237-.409-.785-.342-1.087a12.317,12.317,0,0,1,.981-2.083c.16-.181.16-.181.251-.068.355.39,1.078.234,1.551.272.336-.021.534-.269.776-.408.215-.177.319-.211.479-.362l.547-.906a1.346,1.346,0,0,0,.479-.883c.115-.265.333-.486.342-.747a6.23,6.23,0,0,1,0-.929c.046-.249-.023-.294-.228-.452-.456-.223-.936-.647-1.551-.476a3.6,3.6,0,0,0-.912.362l-.479.181-.5.385c-.15.122-.161.118-.205.295-.174.159-.7.715-.821.86a2.432,2.432,0,0,1-.524,1.042c-.3.718-.721,1.426-1,2.129l-.456,1.539v.091c-.023.045-.023-.091-.023.068-.319.453-.525.679-.912.7-1.438.832-2.045,1-2.007.838.023.045-.3-.068-.319-.023l.114-.068c-.006-.057-.055-.221-.023-.294a3.322,3.322,0,0,0,.433-1.155c.047-.464.505-.709.387-1.177a.961.961,0,0,1,.069-.295c.42-.589.3-.851.5-1.472a2.824,2.824,0,0,0,.114-.339c.091-.544.046-.362-.274-.589a.635.635,0,0,0-.273-.022c-.046.022.046.022-.023-.114a1.342,1.342,0,0,0-1.346.249c-.619.574-1.279.648-1.756,1.109a1.184,1.184,0,0,1-.342.226c-.273-.342.249-1.226.342-1.562a5.536,5.536,0,0,1,.365-.929s.182-.068.274-.5a3.638,3.638,0,0,1,.411-1.019,1.869,1.869,0,0,1,.3-.928c-.013.01-.09.132-.114.114a2.162,2.162,0,0,0,.433-1c.182-.136.319-.77.433-.974a7.018,7.018,0,0,1,.434-.7c.357-.382.553-1.19-.091-1.2a1.852,1.852,0,0,0-1.528.566l.023.022c-.137.091-.182.091-.274.226l-.023-.022c.006.015-.038.134-.046.113l.023.045a3.461,3.461,0,0,0-.365.611,12.375,12.375,0,0,0-.866,2.174l-.023-.045c0,.045-.023.091-.023.136.064-.007,0,.064,0,.091,0,.091-.023.136-.023.2-.068.248.016.6-.159.815a1.693,1.693,0,0,0-.206.77c.01.167-.082.246-.137.385a1.985,1.985,0,0,0-.342.906c-.238.259-.228.531-.342.815-.153.62-.408,1.237-.593,1.789a7.813,7.813,0,0,0-.365,1.11,15.2,15.2,0,0,0-.684,1.358,2.462,2.462,0,0,0-.387,1.472c0-.045.091.045.137.068h.5c-.058.451.922-.248,1.14-.272a.748.748,0,0,1,.251-.226,2.146,2.146,0,0,1,.137-.679c.077-.323.291-.572.251-.928.009-.664.618-1.217.867-1.653.126-.231.5-.384.661-.521.355-.261.863-.685,1.163-.929.256-.306.925-.449.684.091-.17.413-.256,1.59-.434,1.993-.123.7-.981,2.06-.638,2.558.72,1.1,2.324.24,3.17-.294.258-.05,1.279-1.1,1.163-.521-.09.469.265.752.571,1.064a1.187,1.187,0,0,0,.935.5c.446-.026,1.345.045,1.779-.023a12.092,12.092,0,0,0,1.369-.544l.068.045c.046-.113.114-.317.114-.294.222-.185.844-.73,1.026-.883a5.271,5.271,0,0,0,1.939-2.106A15.253,15.253,0,0,0,60.524,82a9.133,9.133,0,0,0,.73-1.223c.114-.317.205-.385.387-.362.322.085.287.861.114,1l.023.022a.949.949,0,0,0-.524.612h.023c-.233.143-.2.237-.274.407a1.725,1.725,0,0,1-.365.815c-.149.407-.27.8-.433,1.155-.311,1.034-1.01,2.9.205,3.714.6.642.573.476,1.414.5" transform="translate(0 -30.513)"/>
  </g>
</svg>
