<svg xmlns="http://www.w3.org/2000/svg" xmlns:xlink="http://www.w3.org/1999/xlink" width="239.429" height="119.224" viewBox="0 0 239.429 119.224">
  <defs>
    <clipPath id="clip-path">
      <rect id="Rectangle_1" data-name="Rectangle 1" width="239.429" height="119.224" fill="none"/>
    </clipPath>
  </defs>
  <g id="logo_Le_Rucher" data-name="logo Le Rucher" transform="translate(0 0)">
    <g id="Groupe_1" data-name="Groupe 1" transform="translate(0 0)" clip-path="url(#clip-path)">
      <path id="Tracé_1" data-name="Tracé 1" d="M196.145,52.9c-3.067-.312-6.889-.412-10.183-.979-14.122-1.533-29.346-3.418-42.388-7.237-4.129-2.352-8.586-4.995-11.558-8.545-1.168-1.838-4.221-3.557-6.044-5.4-1.905-2.019-4.313-2.325-5-4.771a3.55,3.55,0,0,0-.768-.886,5.688,5.688,0,0,1,.271-2.683c.181-1.378.737-2.991,1.1-4.667.49-2.264-.491-3.117-1.353-5.025C118.4,7.514,113.34,4.135,108.607,0a25.954,25.954,0,0,1-2.561,3.95,11.929,11.929,0,0,0-1.7,2.121,2.146,2.146,0,0,0-.32.472c-1.613,3.636,3.542,5.284,1.843,8.218C97.3,28.427,86.115,40.932,71.6,49.794c-7.573,5.746-16.635,9.865-24.853,14.668-2.618,1.53-6.117,3.395-9.708,5.585-1.246.761-.433,1.822,1.271,1.33A41.026,41.026,0,0,0,45.67,68.4c1.214-.469,3.972-1.336,4.778-2.28a21.842,21.842,0,0,0,3.25-1.359c1.593-.85,3.562-2.289,5.092-3.233,1.918-.905,4.4-1.845,6.054-3.175,4.06-1.373,8.419-4.326,12.477-3.609,0,0,6.016-1.245,8.22-2.922a8.267,8.267,0,0,1,3.09-2.36c.628-.629,2.536-1.9,3.264-2.458a35.791,35.791,0,0,1,7.7-2.458c.858-.568,2.714-1.743,3.618-2.229,3.679-.884,5.505-4.9,9.156-5.749a12.773,12.773,0,0,0,2.741-2.766c.219-.247.521-1.234.761-1.541.386.242.593-1.977.86-1.819a5.506,5.506,0,0,0,2.34,3c.589,1.617,4.61,6.309,7.851,11.773,4.035,5.228,5.482,9.262,6.563,9.625.468,1.347,6.778,5.361,7.495,6.062,1.481.806,3.7,1.619,4.833,2.826a6.845,6.845,0,0,1,2.995,1.507,22.492,22.492,0,0,0,4.159,1.51c2.579-.133,4.991,1.578,7.426,1.872l4.055.988,1.483.089c2.767.266,7.952.876,12.22,1.352,1.271.142,4.11-.391,4.789-1.471a2.353,2.353,0,0,1,2.383-1.33c2.629-5.154,4.328-3.7,6.892-6.029.261-2.06,9.071-8.8,3.93-9.323" transform="translate(2.917 0)" fill="#fff"/>
      <path id="Tracé_2" data-name="Tracé 2" d="M230.24,94.049a26.224,26.224,0,0,1,3.157-3.854h-.043c.043-.043-.085-.043.085-.043.355-.092,2.274-1.348,2.261-1.186.256-.168.256-.168.47-.168.171.042.6.55.383.846-.341.551-1.151,2.118-1.621,2.287a5.093,5.093,0,0,0-1.279.8c-.784.566-3.256,1.035-4.181,1.314-.427.127,1.067.127.768,0M211,87.145c.127.043.853-.085.639-.127.256-.212.214-.169.129-.254l-.726-.847c.023-.587-.458-.515-.683-1.017a1.173,1.173,0,0,1-.171-.211c0-.254,0-.169-.042-.254v-.254c0-.043-.213-.212-.3-.3.068-.1.026-.134-.043-.3-.127-.3.093-.307-.341-.508.043.042-.042-.254-.042-.381-.043-.169-.085-.169-.256-.212.171-.211-.256-.508-.6-.8-.062-.074-.672-.232-.768-.3l.085-.042a1.657,1.657,0,0,0-1.407-.212l-.043-.042-.171.254c-.127,0-.171-.043-.085.211-.213.128-.171.128-.085.254-.072.247.163.506.6.932-.171.128-.042.085.129.128,0,.3-.043.211.171.3-.129.127.213.424.383.635a1.642,1.642,0,0,0,.6.678c-.214,0,.085.254.383.508.238.336,1.593,1.694,1.92,1.694l.469.424h.3a.041.041,0,0,0-.042.042M203.112,103.2a17.958,17.958,0,0,0,5.587-2.541A19.5,19.5,0,0,1,211,99.13c-.269,1.184-.393,1.878.981,2.668a1.8,1.8,0,0,0,1.749.72.851.851,0,0,0,.6-.169c.293-.435.028-.391.085-.8-.113-.174.205-.17.085-.424a4.045,4.045,0,0,1,.341-2.16,54.334,54.334,0,0,1,1.962-5.929c.127-.382.341-1.821,1.407-1.736.1.069,1.179.257,1.28.3-.171.128.383.72.383,1.186l-.6,1.906a.889.889,0,0,0-.085.635,3.765,3.765,0,0,1-.256,1.44c0,.424.043.932-.255,1.228l.085.043c-.519.04-.244.811-.427.55-.16.816-.006,1.373-.512,2.075a2.071,2.071,0,0,0-.214,1.907c0,.042.129-.043.171,0,.254.27.893.172,1.151.042.08-.041.4-.122.427-.085l-.171-.042a.545.545,0,0,1,.171.042,6.754,6.754,0,0,0,.768-.72l-.171.042c-.026-.051.174-.128.214-.169a8.948,8.948,0,0,1,.725-.55c.485-.385.784-.983,1.28-1.186a4.33,4.33,0,0,0,1.151-.889c.529-.731,3.233-1.97,4.1-2.583-.6-.254-1.664-.254-1.664.127-.024,1.814.254,4.113,2.431,4.828.378.409,1.314.4,1.877.678.78.394,1.433-.072,2.175-.085a.56.56,0,0,1,.427,0c.011-.008.166-.213.129-.211l.9-.3a1.277,1.277,0,0,0,.81-.169,12.37,12.37,0,0,0,3.455-2.371l-.042-.085c.454-.566,1.369-1.3,1.066-1.864-.35-.933-1.552-.2-1.834.128l-.384.592a.287.287,0,0,0-.3.169,1.988,1.988,0,0,0-.768.466l-.085-.043a5.986,5.986,0,0,1-1.877,1.144c-1.112.575-1.03.515-2.815.593-1.439-.326-1.43-3.843-.853-4.616a10.767,10.767,0,0,0,3.753-1.058c1.428-.507,2.062-1.76,3.242-2.33,1.36-.789,2.528-2.732,2.346-3.218l-.213.085h.171c.082-.692-.314-1.174-1.067-1.779-7.04-.22-8.215,3.662-11.431,7.411-.92,1.441-3.6,2.5-4.479,3.515-.085,0-.427.169,0-.042.171.254-.042-.085-.085-.169l-.085.085c.129.042.043-.762.043-.8.154-1.216.826-2.891,1.109-4.108.224-1.36,1.553-2.843,0-3.9-.036,0-.137.06-.171.043l.127-.043c-1.713-1.169-2.63-.294-4.223.3-.767.8-.725.847-1.919.974-1.007.029-1.07.184-1.195.508l.129.043c-.256.042,1.237.931,1.237.678a12.811,12.811,0,0,1,.3-2.33c.19-.56.677-1.287.6-1.524.023-.117-.048-.761-.043-.89a2.328,2.328,0,0,0-2.175.254,2.848,2.848,0,0,0-1.109,1.229c-1.056.372-1.431,1.169-2.261,1.693-.27.2-.254.325,0,.551a5.809,5.809,0,0,0,.639.593c1.007.651-.017,1.7-.127,2.5a6.457,6.457,0,0,1-.725,2.2c-.384.89-.853,1.99-.982,2.457-.341.974,3.028-2.668,1.621-1.821-1.184.5-2.15,1.353-3.2,1.906a29.173,29.173,0,0,1-4.308,1.863c-.852.339-2.97,1.109-3.028-.253-.087-.706-.364-2.066.043-2.668l-.085-.043c2.079-.695,5.049-1.813,6.44-3.43.11-.269.743-.582.853-.72.431-.221.405-.627.469-1.017a2.228,2.228,0,0,0,.64-1.736c.192-1.225-1.247-2.379-2.517-2.626-1.322-.042-1.493-.254-1.195,0-.083,0-.409.142-.383.169a4.222,4.222,0,0,0-2.474,1.44c-.085.127,0,.085-.171.169-.085.042-.3.169-.3.127l-.256.339c.469,0,0-.042-.085.085-.043.085-.043.212-.085.254a2.942,2.942,0,0,0-1.365,1.144c-.157.3-.578.341-.512.72.127-.085.085.211.085.381a7.19,7.19,0,0,0-.853,1.525c-.311,1.036-.977,1.974-1.28,2.88a.459.459,0,0,1,.427-.169.042.042,0,0,0-.042-.043c-.318.184-.286.5-.47.805-.256.423-.512.55-.213.931.249.3.083,1.262.127,1.779.27.948.215,1.6,1.28,2.16-.127.043.171.424.512.424.085.043.725.085.683.169.316-.043.917.25,1.28.085m-1.195-22.573-4.82,5.252a3.063,3.063,0,0,1,.512-2.245c.306-.273.4-.787.6-1.1.12-.417.539-.873.469-1.271a.426.426,0,0,1,.129-.382,25.658,25.658,0,0,0,2.09-2.753,10.966,10.966,0,0,1,1.28-1.693c.618-.809,1.465-2.272,2.388-2.329.449.032.434-.043.768-.3.531-.225.9-.016,1.451-.085-.279.159-.278.138,0,.3-.213,0-.213,0-.085.169-.905,2.789-3.077,4.483-4.777,6.436m.81,16.009c-.213-.762,2-4.616,2.261-5.04.5-.6,1.32-1.278,1.75-1.821.517-.575.861-.478,1.493-.424a3.067,3.067,0,0,1,.213,1.186c0,.085.129.127.043.169s-.385,0-.256.127c-.214.169-.3.254-.214.3-.383.761-.725,1.439-.937,1.947-.373.145-.657.349-.683.678l.127.043c-1.021.108-1.071,1.309-1.962,1.27l-.171-.042-.213.3a3.082,3.082,0,0,1-2,.847c-.6-.085.683,1.017.554.466m-9.512,6.268c.515.02.959-.034,1.451-.043.4-.012.78.288,1.195.043.721-.517,3.014-1.7,1.663-2.541-.945-.548-2.177.554-3.028.847-2.031.553-2.566-2.035-1.961-3.6.084-.169.084-.042.084-.211a.559.559,0,0,0,.043-.212l.127-.974c-.171-.085-.213-.128-.213-.169-.171.381.341.465.383.085a10.857,10.857,0,0,1,.3-1.948c1.077-1.511.332-1.248.81-2.118a1.948,1.948,0,0,0,.6-1.524,2.408,2.408,0,0,1,.64-1.567,8.827,8.827,0,0,1,.426-.805c.639-.53,1.638-1.221,2.048-1.482l.129.042c.127-.127.426-.465.426-.465h-.042a11.683,11.683,0,0,0,1.066-1.1,51.767,51.767,0,0,0,4.394-4.193c.256-.127.512-.339.3-.381a9.887,9.887,0,0,0,1.279-1.567c.77-.283,1.02-1.636,1.494-2.16a5.374,5.374,0,0,0,1.578-2.711l-.427.043c0,.042.171.168.127.168l.214-.127c.042-1.058.085-2.075-2.09-2.711-3.2.3-4.308,1.44-4.863,1.991-.255.254.129.424-.426.127a1.824,1.824,0,0,1-.085.508l.085.043c-.189.2-2.284,2.131-2.389,2.286-.13.158-.185.392-.256.254a7.3,7.3,0,0,1-1.066,1.651,7.2,7.2,0,0,0-.6,1.017c-.256.551-.3,1.1-.384.889a2.382,2.382,0,0,0-.937,1.4c-.535,1.2-1.2,2.455-1.706,3.557-.445,1.013-1.259,2.547-1.663,3.515-.3.465-.555.8-.427,1.355-.24.73-1.681,4.147-1.962,4.785l-.043-.085c-.017,2.533-.427,3.509.513,5.929.005,1.2,1.871,2.1,3.2,2.161m-13.563.085a2.865,2.865,0,0,0,2-.339s-.043.085-.085.042l.042-.127-.085-.085a14.824,14.824,0,0,0,2.218-1.737c.2-.275.937-1.422,1.151-1.651a8.439,8.439,0,0,0,1.28-2.2,11.634,11.634,0,0,0,.639-1.229,1.386,1.386,0,0,0,.214-.762c0-.931.639-1.567,1.195-1.4a1.241,1.241,0,0,0,.639.085c.256-.169.3.085.47-.085a.322.322,0,0,0,.213.085c-.129-.042-.043.593-.043.932.043.424,0,.212.256.889l1.621-3.938c-.76.136-.721,1.2-1.536,1.185-.171,0-.682,0-.427.085-3.127.207-.516-3.463-4.819-4.235a3.57,3.57,0,0,0-1.749.635,5.509,5.509,0,0,0-2.133,1.44,14.359,14.359,0,0,0-3.668,5.844,6.422,6.422,0,0,0-.512,1.271c-1.547,2.382,1.406,6.07,3.114,5.294m.554-2.287c-.383.169-.554.254-.853-.3,0,.211-.213-.339-.341-.805a2.978,2.978,0,0,1,.3-.932c.221-.673.451-1.248.81-2.075.413-.949.679-1.729,1.066-2.456a22.132,22.132,0,0,0,1.195-1.907,5.991,5.991,0,0,1,1.237-1.947c.085-.085.085-.085.171.042.364.757,1.176,1.966,1.024,3.05a9.222,9.222,0,0,1-1.322,4.065,8.217,8.217,0,0,1-3.284,3.261m-13.394,2.329c1.238,0,3.711-2.033,3.925-2.414a2.738,2.738,0,0,1,.768-.974l.639-.678a10.191,10.191,0,0,0,1.578-1.948l-.085-.085c.3.027.724-.836.9-1.017.207-.34.579-.833.767-1.143a31.615,31.615,0,0,0,2.517-3.726,9.545,9.545,0,0,0,1.835-3.389.849.849,0,0,0-.9-.3c-.685-.065-1.407,1.355-1.193,1.4l-1.621,1.567a3.41,3.41,0,0,1-1.238,1.567c-.042.043-.127-.042-.042.128-.388.542-1.312,2.078-1.706,2.541a16.641,16.641,0,0,1-2.132,2.371c-.129.169-.341.466-.341.466a41.843,41.843,0,0,1-3.413,3.514c.043,0,1.749.085,1.494.085a6.994,6.994,0,0,1-.47-1.651,7.832,7.832,0,0,1,.341-3.218,6.965,6.965,0,0,0,.383-1.779,3.454,3.454,0,0,1,.3-1.271c.281-.246.118-.357.213-.635.416-.922,1.038-1.366.9-2.372.035-1-1.834-1.092-2.346-.635-1.387,2.041-2.657,6.564-3.157,8.893a5.823,5.823,0,0,0-.127,1.948c.268,2.333-.224,1.324,1.108,2.244.512.593.47.382.6.424a1.829,1.829,0,0,0,.512.085M146.681,83.249l.383.085c0-.128.085-.169.214-.212.164,0,.483-.331.682-.465.273-.24.785-.953.853-.8,0-.085,1.792-2.329,1.706-2.244.227-.309.678-.713.64-1.059a1.412,1.412,0,0,0,.554-.8,1.329,1.329,0,0,0-.256-1.694c.127-.254-.129-.3-.3-.3.076-.6-.181-.776-.767-.932-.171,0-.6-.043-.555.211l-.427,1.186-.768,1.694c-.253.1-.151.309-.3.508a3.425,3.425,0,0,0-.554,1.186c-.341.3-.6.592-.555.931-.256.169-.341.254-.383.508a1.011,1.011,0,0,1-.129.3c-.521.422-.335,1.375-.042,1.906m7.421,20.412c.766.009,1.524-.023,2.3,0,.214-.042.129-.085.427.085a2.523,2.523,0,0,1,1.28-.422c.176.007.342-.091.469,0a13.905,13.905,0,0,0,1.451-.593c.213-.3,1.407-.3,1.109-.424.256-.3.213-.3.383-.339,0-.043.085-.043.085-.043.853-.127.683-.381.683-.381a1.942,1.942,0,0,1,1.151-.72c.075-.631.465-.416.811-.721l.085.128c-.041-.361.326-.251.127-.339.171-.212.3-.424.3-.382l-.085-.042c.554-.254.3-1.229.127-1.017a10.285,10.285,0,0,1-1.792,1.143,9.394,9.394,0,0,1-2.047,1.1c-1.064.424-2.015.428-3.028.762a.434.434,0,0,1-.385.127,11.344,11.344,0,0,1-2.772-.085c-1.3-.384-1.353-2.51-1.151-3.854a3.471,3.471,0,0,1,.213-1.4c.24-.5.274-1.972.6-2.075a.063.063,0,1,1,0-.127,3.714,3.714,0,0,0,.683,0c.374-.117.435-.193.683-.169.639.069,1.306-.326,1.792-.339.257-.019.626.047.9,0a1.271,1.271,0,0,0,.555-.085c.564-.359.9-.164,1.449-.254a2.4,2.4,0,0,1,.768-.128,1.766,1.766,0,0,0,1.024-.169c.416.049.332-.253.554-.211a.848.848,0,0,0-.213-.212c-.042,0,.085-.169.085-.3.038-.265.1-.383.3-.465v-.043c-.495.042-.834-.235-1.407-.085-.058-.291-1.036-.271-1.151-.042.512.169.171.042.042,0a4.527,4.527,0,0,0-.6-.128c-.85-.03-.6.463-1.578,0-.542-.029-1.4.016-1.961,0l-.6.212c-.214.085.085.042-.129-.3a11.238,11.238,0,0,1,.939-1.906c.639-1.1,1.536-2.8,2.09-3.6a4.168,4.168,0,0,0,.811-1.567.575.575,0,0,1,.3,0c.043-.043.127-.169.043-.128.8-.516,2.515-.145,3.071-.72a4.2,4.2,0,0,0,1.322-.128l-.171.085c-.085.043.085-.042.171-.042l.043-.128a1.813,1.813,0,0,1,.427-.085c.127-.042-.043-.042.341-.042.059-.085.246-.017.3-.085,0,.042-.171-.085-.127-.042.133.083,1.365.1.9-.169h.085c-.043.169.3.085.341.085.082-.069.1-.035.171-.043a1.642,1.642,0,0,1,1.024-.127c.127-.128.127-.128.042-.169.91.38,1.164-.419,1.195-1.059,0-.211.042-.55,0-.169a.564.564,0,0,0-.81-.042,37.77,37.77,0,0,0-4.564.424c-.083-.173-.42.026-.6,0-1,.178-2.015.359-2.9.465-.958-.062-1.836.279-2.773.3a6.106,6.106,0,0,0-1.493.127c-.522.121-1,.364-1.451.424a2.457,2.457,0,0,0-.725.211c-.4.034-.49.349-.939.085-.225.5-.172.371-.427.382a9.084,9.084,0,0,0-1.109.55l-.085-.042c-.042.085.043.127-.042.211-.042,0-.213.128-.171.043-.374.611.446.542.3,1.44l.214-.128c.374-.006.773-.247,1.066-.211a.847.847,0,0,0,.683-.043,1.226,1.226,0,0,0,.939-.042c.042,0,.171-.043.085-.043.59.023.825-.577,1.066.169a8.086,8.086,0,0,0-1.364,2.244c-.719,1.418-1.225,2.448-1.75,3.727.031-.4-.372.369-.469.381-.226-.043-.657.208-.683.381-.47-.008-.063.148-.427.043-.07.07-.13.161-.213.254-.555.465-.6.424-.47.72,0,.339.171.593,1.152,1.017a14.072,14.072,0,0,0-.257,6.394,4.627,4.627,0,0,0,2.859,2.711c-.085.085.3.085.426.085Zm-20.047.043a1.537,1.537,0,0,0,1.28-.381c.732-.738,1.407-1.3,1.364-2.161a12.533,12.533,0,0,1,1.024-4.022.632.632,0,0,1,.171-.339c.7-.766.225-2.312.9-3.134,0-.042.085,0,.085-.085a.978.978,0,0,1,.042-.169,3.829,3.829,0,0,1,.6-1.778h-.043l.214-.169a9.87,9.87,0,0,1,.9-1.948,2.574,2.574,0,0,0,.641-1.44c0-.127-.043-.3.085-.254a16.934,16.934,0,0,0,1.407-3.092,2.075,2.075,0,0,1,.127-1.271c-.213.466.384.043.6-.381a18.524,18.524,0,0,0,.9-1.694c.089-.445.147-1.274.512-1.482a7.247,7.247,0,0,0,.085-1.186c-.549-.543-2.128.181-2.3.721a7.329,7.329,0,0,0-.639,1.1,16.114,16.114,0,0,0-1.408,2.837l.385-.042v-.085l-.427.042a6.162,6.162,0,0,0-.214.678c-.167.43-.366.905-.469,1.186a1.648,1.648,0,0,0-.6,1.058c-.013.081.1.143,0,.212a13.068,13.068,0,0,0-1.237,2.414.041.041,0,0,1,.042-.042,5.19,5.19,0,0,1-.6,1.439,5.6,5.6,0,0,0-3.284.593,10.185,10.185,0,0,0-3.881,3.6,5.694,5.694,0,0,0-.768,1.44,8.3,8.3,0,0,0-1.92,5.929c1,1.627,2.586,1.537,4.052.465.405-.232,1.777-1.346,2.175-1.608a.55.55,0,0,1,.256-.043c-.15.376-.09.89-.3,1.567-.116.79-.561,1.335.256,1.525m-1.066-3.557c-3.551,2.692-1.31-4-.171-4.871.2-.22.992-1.284,1.151-1.44.943-1.054,1-2.511,2.559-2.329-.315.005.229-.025.256-.085-.108,2.12-1.336,4.654-2.175,6.394a4.955,4.955,0,0,0-1.024,1.822,7.485,7.485,0,0,0-.6.508m-30.2-7.2a5.094,5.094,0,0,1-1.408-.678,13.63,13.63,0,0,1,1.451-2.287,9.451,9.451,0,0,0,1.493-1.524c.384-.208.332-.817.9-.847a5.971,5.971,0,0,1-.47,3.133c-.829.961-.408,2.8-1.961,2.2m-29.56,10.587c2.47-.729,5.069-1.991,5.972-4.235l.129-.043c-.022-.52.045-1.112.042-1.608-.435.33-1.17-.172-1.536.423.129.169,0,.043-.042.128,0,.085.127.339-.043.254a6.545,6.545,0,0,1-1.066.974c-.655.788-1.945,1.195-2.644,1.779l-1.75.211c-.2-1.143.416-1.946.683-2.753.068-1.205,1.052-2.819,1.536-3.9a17.543,17.543,0,0,0,1.066-1.61s.171.043.171-.127h.214a10.533,10.533,0,0,1,0,2.16c.233-.27.74.086.981-.085,1,.086.4-.076.939-1.058.085-.128.127-.043.127-.128-.031-.984.114-1.956,0-2.922-.521-1.39-2.957.358-4.009.72-.318.169-.558.664-.768.805a15.665,15.665,0,0,0-2.09,2.372c-.248.374-.637.76-.853,1.143-.687,1.4-2.842,3.84-4.99,4.4-.625-.913.356-2.106.6-2.753.3-.889.511-1.651.682-2.372.225-.612.291-.938.47-1.482.356-.928,1.244-2.663.939-3.218-.043-.128-.939-.551-1.109-.212-.227.105-.723.275-.768.424-.578.138-.747.5-1.066.636l.085.085c-.256.211-.341.169-.341.465a2.917,2.917,0,0,0-.555,1.44,1.591,1.591,0,0,1-.042.465c0,.043.085.254-.043.128-.009,1.085-.648,1.76-.9,2.583-.244.606-.553,1.175-.81,1.017a2.871,2.871,0,0,1-.555.507l.085.085A22.607,22.607,0,0,0,59.793,99.3a1.3,1.3,0,0,1-1.322.508c-.593-2.29.853-5.187,1.535-7.369.258-.79,1.039-1.591.811-2.583a8.319,8.319,0,0,0-2.474.508c-.568.5-1.348.843-1.151,1.4a1.2,1.2,0,0,0-.341.72l-.3.721c.121.064.073.115.042.211.021.2-.224.507-.171.636-.67,1.864-.78,2.565-1.151,3.853a6,6,0,0,0-.3,3.473,2.159,2.159,0,0,0,1.408,1.017,5.079,5.079,0,0,0,2.687-.3c.366-.079.662-.659.852-.8.709-.637,1.456-1.418,2.048-1.99.178-.555.61.679.683,1.058-.008.375.437.7.683,1.058.314.352.834.248,1.195.254a6.945,6.945,0,0,0,1.578-.085l-.043.043c.739-.392.667-.5.982-.339a2.876,2.876,0,0,1,.127-.339H67.13c1.025-1,1.571-1.659,2.729-2.965-1.433,3.674-1.509,6.184,3.37,5.548m-26.4-16.092c.625-1.43,1.384-3.508,2.136-4.872a5.936,5.936,0,0,1,.852-1.743,5.425,5.425,0,0,1,2.77-.416c.866.15,1,.976.852,1.948a3.159,3.159,0,0,1-.937,2.286c-.084.229-1.3,1.266-1.067.975a8.309,8.309,0,0,1-4.606,1.821m11.517,26.51c2.758.6,6.114-1.707,7.464-2.244.359-.143.647-.247.683-.508.171-.465-.256-.635-.81-.635-.554-.043-1.151.211-1.237.508a4.391,4.391,0,0,0-.811.635c-.125.041-1.581.886-1.705.762.053-.369-.64.127-1.152,0a3.879,3.879,0,0,0-1.578.085c-.413.055-1.045-.653-1.493-.72-1.107.028-1.052-.774-1.536-.636l.171-.042c-.293-.317-1-1.047-1.407-1.4a4.1,4.1,0,0,0-.555-.846c-.327-.892-1.069-1.838-1.407-2.88-.042-.169-.256-.932-.383-1.482-.291-1.192-.412-1.948-.6-3.092a10.144,10.144,0,0,1-.427-3.134c-.162-1.315-.245-2.931-.3-4.192-.123-.915.12-1.705-.383-2.626a5.956,5.956,0,0,0-.81-2.837c3.237-1.071,7.6-4.936,6.542-8.064-.473-1.394-2.733-1.931-4.069-1.8a9.913,9.913,0,0,0-3.241.382,11.269,11.269,0,0,1-2.56.254l-.427.381c-.256.465-.427.635-.6.678h-.127c-.043.042.042.042.042.042a2.258,2.258,0,0,0-1.108.382c-.428.295-1.109.444-1.365.762-.353.626-1.71,1.1-2.346,1.313l-.043-.042c-.3.507-.213.592.085,1.143.129.424,2.474.211,2.517-.128.288.084-.062-.317.171-.254.164-.2.817-.478.9-.593.469-.8,1.961-.677,2.517-.677.768,0-.256-1.017-.47-.636-.085.3,0,.339-.256.382-.127.042-.469.085-.512.169-.456,1.182-1.63,4.271-2.09,5.378-.342.491-.229,1.332-.512,1.779a9.025,9.025,0,0,1-.3,1.143c-1.094,1.9-1.279,3.48-2,5.082a6.1,6.1,0,0,0-.768,1.737,2.259,2.259,0,0,1-.214,1.228,2.4,2.4,0,0,0-.554,1.228,6.564,6.564,0,0,0-.043,2.88c.439.871,2.321.629,2.73-.339.262-1.163.382-2.239.6-3.346.221-.1.755-2.332.981-2.711.5-1.641,1.205-3.166,1.749-4.7a14.943,14.943,0,0,1,.9-2.8c1.637.643,1.181,2.2,1.705,4.4a18.787,18.787,0,0,1,.043,3.939,20.943,20.943,0,0,0,.9,6.141c.1.386.368,1.412.341,1.4a15.138,15.138,0,0,0,2.6,5.59,14.711,14.711,0,0,0,2.816,2.668c.041.455.89.409,1.28.508a6.72,6.72,0,0,0,2.473.381m-37.92-20.92c-.127,0-1.066-.254-.853-.593l1.28-2.118.3-.424c.309-1.408,1.295-1.825,2.262-2.286.255.009.661,1.129.256,1.608a3.488,3.488,0,0,0-.47.932c-.329.821-.648,1.632-.981,2.329-.341.847-.939.678-1.792.551M3.19,103.493l2.389-.466a1.239,1.239,0,0,1,.085-.381l-.043-.043a15.378,15.378,0,0,0,2.431-.932,2.69,2.69,0,0,1,1.024-.678A27.556,27.556,0,0,0,15.3,96.758c.127-.169-1.28.085-1.151.424.082.194.365,1.973.469,2.2a6.623,6.623,0,0,1,.341,1.693l.683,1.017a1.1,1.1,0,0,1,.256-.085h-.129c2.733,1.85,7.258.477,9.555-.974.243-.115.829-.581.981-.678l.043.043.042-.043a10.066,10.066,0,0,0,2.858-3.726,2.452,2.452,0,0,0,.64-1.99c0,.042-.385-.169-.47-.169a1.514,1.514,0,0,0-.427.085c-.127.042-.427.507-.341.465a8.551,8.551,0,0,0-2.132,2.668c-.314.2-.006.926-.341.974-.683.128-3.967,1.99-4.65,1.779-.6.128-.981.169-1.451.254-.993.109-2.312.5-2.388-.466-.043-.211-.043-.127-.171-.3a1.633,1.633,0,0,1,0-1.271c.161-1.087.091-3.072.81-3.811a5.7,5.7,0,0,0,1.407.55,2.214,2.214,0,0,0,1.621-.339c.437-.285,2.551-.92,2.73-1.4a7.1,7.1,0,0,0,.852-1.355,6.129,6.129,0,0,0,2.006-2.922c.712-1.244.413-3.485-1.494-3.683a2.233,2.233,0,0,0-2.431.381,4.783,4.783,0,0,0-1.961,1.143,1.866,1.866,0,0,1-.6.551A7.277,7.277,0,0,0,18.375,89.6c-.456.7-1.122,1.269-1.535,1.906a20.153,20.153,0,0,1-1.323,2.2,5.225,5.225,0,0,1-1.663,2.371L12.4,97.14c-.524.217-2.247.921-2.473,1.058-2.1,1.011-4.643,1.984-6.952,1.694.246-1.706,2.263-5.723,2.175-5.675.1-1.271.932-2.5,1.109-3.515l.042.042a1.732,1.732,0,0,0,.469-1.4,4.724,4.724,0,0,0,.3-.762,6.052,6.052,0,0,0,.383-.762s-.341.169-.213.212a13.513,13.513,0,0,1,.768-1.44c.642-1.524,1.532-3.009,2.09-4.4l-.214.169c.08.069.771-1.352.811-1.355.418-.671.626-.911.639-1.482a28.142,28.142,0,0,0,2.346-3.134c.361-.473.152-.833.085-1.355-.042-.127-.3-.169-.6-.169-1.108-.042-1.407.382-1.535.551-.289,1.021-1.662,1.239-1.664,2.2,0-.042-.042,0-.213.254l-.385.382L8.736,79.48c-.88,1.462-1.934,3.085-2.729,4.532-.043.085,0,.085-.085.127-.043.085-.214.3-.214.254a5.033,5.033,0,0,1-.981,2.033v.085c-.043.042-.043-.085-.043,0L4.3,88.162c-1.216,1.944-1.338,3.317-2.133,5.251-.693,1.662-1.7,3.1-1.961,4.828-.607,1.138.367,2.87-.043,4.193-.319.819.947.785,1.621.805a2.208,2.208,0,0,1,.853.127c.153.075.424.184.554.128m112.437.042c.551-.188,1.851-.113,2.3-.678,2.519-1.3,2.8-1.88,3.8-2.286l.214-.085c.81-1.35,1.928-2.215,2.3-3.176.382-1,1.16-1.718.767-2.668a1.83,1.83,0,0,0-.383-.551c-.26.076-.692-.041-1.024.339a7.2,7.2,0,0,1-.683,1.143c-.993,1.237-2.317,1.972-2.729,3.219a2.841,2.841,0,0,1-.3.169c-.042.042,0,.085-.085.127-.213.085-.213,0-.512.3-.273.191-.872.352-1.023.465a4.027,4.027,0,0,1-.982.593c-.085.169-.085.211-.256.254-1.1.641-2.608.907-2.09-.847.024-1.02-.134-2.3.384-3.176a2.376,2.376,0,0,0,.383-1.61c.212-.268,1.273-2.983,1.578-2.922l.385-.042a9.73,9.73,0,0,0,.9-1.4c.9-1.664.808-.869.3-2.583l-.042.042a3.784,3.784,0,0,0-.427-.424c-.062-.623-2.065-.642-2.729-.55-.777.184-.186-2.356-.256-2.8.639-.254.554-.339.511-.593.022-.949.58-1.636-.725-2.5-.318-.059-1-.207-1.237.043-.085.085-.043.211-.214.211-.085.128-.171.254-.085.254-1.8.55-2,2.764-2.261,4.108,0,.127.171.465.9.635l-.171.128c0,.085.383.635.725,1.271a5.142,5.142,0,0,1-.3.889c-.2.538-.652,1.278-.811,1.736a38.652,38.652,0,0,1-2.687,3.643c-.7.825-1.175,2.016-1.834,2.5-.393.4-1.145.849-1.493,1.143a9.093,9.093,0,0,1-2.517,1.694c-1.587.522-.979.991-1.451,1.017a15.589,15.589,0,0,0-2.218.381c-.383.042-.256-.043-.427-.465a.328.328,0,0,1-.085-.212c-.186-.443-.766-1.469-.639-2.033.644-1.227,1.054-3.01,1.834-3.9.3-.339.3-.339.47-.127.664.729,2.016.438,2.9.508.629-.039,1-.5,1.451-.762.4-.33.6-.395.9-.678l1.024-1.694a2.517,2.517,0,0,0,.9-1.651c.215-.5.623-.908.64-1.4a11.654,11.654,0,0,1,0-1.737c.085-.465-.043-.55-.427-.846-.853-.417-1.75-1.21-2.9-.89a6.736,6.736,0,0,0-1.705.678l-.9.339-.939.72c-.281.227-.3.22-.383.551-.326.3-1.3,1.337-1.536,1.608a4.549,4.549,0,0,1-.981,1.948c-.557,1.344-1.349,2.668-1.877,3.982l-.853,2.879v.169c-.042.085-.042-.169-.042.127-.6.847-.982,1.271-1.706,1.314-2.689,1.556-3.826,1.873-3.753,1.567.042.085-.555-.128-.6-.043l.213-.127c-.011-.106-.1-.414-.042-.55a6.213,6.213,0,0,0,.81-2.161c.089-.868.945-1.325.725-2.2a1.8,1.8,0,0,1,.129-.551c.786-1.1.567-1.592.939-2.753a5.284,5.284,0,0,0,.213-.635c.171-1.017.085-.678-.512-1.1a1.187,1.187,0,0,0-.511-.042c-.085.042.085.042-.043-.212a2.51,2.51,0,0,0-2.517.466c-1.158,1.074-2.391,1.213-3.284,2.075a2.215,2.215,0,0,1-.639.424c-.51-.64.465-2.294.639-2.922a10.354,10.354,0,0,1,.683-1.737s.341-.127.512-.931a6.8,6.8,0,0,1,.768-1.907,3.5,3.5,0,0,1,.554-1.736c-.025.019-.167.247-.213.212a4.043,4.043,0,0,0,.81-1.864c.341-.254.6-1.44.81-1.821a13.127,13.127,0,0,1,.811-1.313c.669-.715,1.034-2.225-.171-2.245a3.464,3.464,0,0,0-2.858,1.059l.042.042c-.256.169-.341.169-.512.424l-.042-.042c.011.028-.071.251-.085.211l.042.085a6.472,6.472,0,0,0-.683,1.143,23.144,23.144,0,0,0-1.62,4.066l-.043-.085c0,.085-.042.169-.042.254.119-.013,0,.119,0,.169,0,.169-.043.254-.043.381-.127.463.029,1.113-.3,1.525a3.167,3.167,0,0,0-.385,1.44c.019.312-.153.46-.256.72a3.713,3.713,0,0,0-.639,1.694c-.445.485-.427.994-.639,1.524-.286,1.16-.763,2.314-1.109,3.346a14.616,14.616,0,0,0-.683,2.076,28.425,28.425,0,0,0-1.28,2.54,4.605,4.605,0,0,0-.725,2.753c0-.085.171.085.256.128h.939c-.108.844,1.724-.463,2.132-.508a1.4,1.4,0,0,1,.47-.424,4.014,4.014,0,0,1,.256-1.271c.145-.6.544-1.069.469-1.736.016-1.242,1.157-2.277,1.621-3.092.237-.432.929-.717,1.237-.974.663-.488,1.614-1.281,2.175-1.737.478-.572,1.729-.84,1.28.169-.319.772-.478,2.974-.811,3.727-.23,1.318-1.834,3.853-1.193,4.785,1.346,2.061,4.346.448,5.928-.55.482-.093,2.391-2.064,2.175-.974-.167.877.5,1.407,1.067,1.99a2.221,2.221,0,0,0,1.749.932c.834-.049,2.515.085,3.327-.043a22.615,22.615,0,0,0,2.56-1.017l.127.085c.085-.211.214-.593.214-.55.416-.346,1.578-1.365,1.919-1.651,1.95-1.019,2.574-2.438,3.626-3.939a28.526,28.526,0,0,0,2.943-4.828,17.081,17.081,0,0,0,1.365-2.287c.213-.593.383-.72.725-.678.6.159.537,1.61.214,1.864l.042.042a1.774,1.774,0,0,0-.981,1.144h.042c-.435.267-.373.443-.512.761a3.226,3.226,0,0,1-.683,1.525c-.279.761-.5,1.494-.81,2.16-.581,1.933-1.889,5.418.383,6.945,1.13,1.2,1.071.89,2.645.932" transform="translate(0 5.173)" fill="#fff"/>
    </g>
  </g>
</svg>
