<svg id="Groupe_6" data-name="Groupe 6" xmlns="http://www.w3.org/2000/svg" xmlns:xlink="http://www.w3.org/1999/xlink" width="33.09" height="33.105" viewBox="0 0 33.09 33.105">
  <defs>
    <clipPath id="clip-path">
      <rect id="Rectangle_24" data-name="Rectangle 24" width="33.09" height="33.105" fill="none"/>
    </clipPath>
  </defs>
  <g id="Groupe_5" data-name="Groupe 5" clip-path="url(#clip-path)">
    <path id="Tracé_14" data-name="Tracé 14" d="M8.47,0H24.625c.338.054.68.09,1.013.164a9.017,9.017,0,0,1,7.181,6.817c.134.483.183.989.271,1.484V24.621c-.019.1-.046.209-.057.314a8.154,8.154,0,0,1-.688,2.61,8.915,8.915,0,0,1-8.43,5.524c-4.91.069-9.822.021-14.733.015a8.807,8.807,0,0,1-5.218-1.621A8.994,8.994,0,0,1,.008,23.778Q-.011,16.54.012,9.3A8.816,8.816,0,0,1,.18,7.442,8.98,8.98,0,0,1,6.983.271C7.466.137,7.974.088,8.47,0M30.157,16.548q0-3.586,0-7.172a6.59,6.59,0,0,0-.331-2.223,6.192,6.192,0,0,0-6.061-4.218c-4.813-.006-9.626-.015-14.439.013a6.994,6.994,0,0,0-2.154.331A6.121,6.121,0,0,0,2.94,9.318c-.007,4.813-.015,9.626.013,14.439a7.042,7.042,0,0,0,.328,2.154,6.111,6.111,0,0,0,6,4.237q7.268.019,14.537,0a6.117,6.117,0,0,0,5.2-2.634,6.205,6.205,0,0,0,1.14-3.764q0-3.6,0-7.2" transform="translate(0)"/>
    <path id="Tracé_15" data-name="Tracé 15" d="M49.725,41.177a8.526,8.526,0,1,1-8.538-8.522,8.563,8.563,0,0,1,8.538,8.522m-2.941,0A5.585,5.585,0,1,0,41.2,46.766a5.592,5.592,0,0,0,5.582-5.589" transform="translate(-24.652 -24.638)"/>
    <path id="Tracé_16" data-name="Tracé 16" d="M97.017,22.566a2.143,2.143,0,1,1-2.2,2.109,2.155,2.155,0,0,1,2.2-2.109" transform="translate(-71.539 -17.026)"/>
  </g>
</svg>
