<svg id="Groupe_4" data-name="Groupe 4" xmlns="http://www.w3.org/2000/svg" xmlns:xlink="http://www.w3.org/1999/xlink" width="41.727" height="28.921" viewBox="0 0 41.727 28.921">
  <defs>
    <clipPath id="clip-path">
      <rect id="Rectangle_23" data-name="Rectangle 23" width="41.727" height="28.921" fill="none"/>
    </clipPath>
  </defs>
  <g id="Groupe_3" data-name="Groupe 3" clip-path="url(#clip-path)">
    <path id="Tracé_13" data-name="Tracé 13" d="M21.489,28.92c-4.859-.159-9.093-.248-13.322-.46a10.063,10.063,0,0,1-4.751-1.035A4.954,4.954,0,0,1,.683,23.763C.371,21.14.127,18.5.044,15.858A54.988,54.988,0,0,1,.557,5.449,5.7,5.7,0,0,1,5.923.556C9.856.272,13.8-.009,17.742,0,23.481.011,29.22.25,34.957.46A6.092,6.092,0,0,1,40.12,2.868,8.306,8.306,0,0,1,41.3,6.859a68.312,68.312,0,0,1-.041,15.548c-.492,4.227-2.993,5.715-6.46,5.919-4.639.274-9.286.42-13.314.594m5.89-14.545L16.9,7.94V20.82l10.481-6.445" transform="translate(0 0.001)"/>
  </g>
</svg>
