<svg width="456" height="416" viewBox="0 0 456 416" fill="none" xmlns="http://www.w3.org/2000/svg">
<path d="M0.0125523 222.687C62.457 200.547 122.904 173.92 181.656 142.94C192.972 136.971 204.1 130.641 214.738 123.364C217.463 121.507 218.807 119.464 218.518 115.846C218.166 111.466 218.581 111.292 222.587 111.279C226.568 111.279 230.537 111.345 234.518 111.252C236.804 111.199 237.997 112.2 237.57 114.617C236.729 119.304 238.989 121.828 242.468 124.138C258.871 135.061 276.19 144.115 293.634 152.915C341.159 176.884 389.662 198.343 439.384 216.638C444.898 218.667 450.461 220.564 456 222.527C455.95 223.328 455.309 223.541 454.807 223.889C439.472 234.264 423.899 244.132 406.605 250.555C395.326 254.748 384.978 253.119 374.855 246.63C326.828 215.863 278.727 185.244 230.675 154.517C228.829 153.342 227.535 153.356 225.689 154.517C177.725 185.164 129.649 215.623 81.7605 246.403C69.3143 254.401 57.0816 254.321 44.0954 248.539C28.8108 241.729 14.5687 232.982 0.690761 223.461C0.439576 223.288 0.276303 222.994 0 222.647L0.0125523 222.687Z" fill="#010101"/>
<path d="M231.391 250.502C207.704 250.475 188.162 246.135 168.833 240.313C166.309 239.552 166.51 237.749 166.937 235.906C168.306 230.004 170.78 224.636 174.397 219.936C183.842 207.651 195.823 198.557 208.194 189.997C213.883 186.058 219.799 182.493 225.827 179.168C227.397 178.3 228.653 178.3 230.198 179.168C247.768 188.982 264.246 200.413 278.186 215.609C283.21 221.098 287.066 227.374 288.874 234.892C289.892 239.111 289.716 239.392 285.747 240.634C266.871 246.576 247.667 250.395 231.378 250.502H231.391Z" fill="#B4B4B4"/>
<path d="M218.97 58.5459C219.095 53.4849 218.279 49.0516 215.956 45.0722C214.938 43.3229 215.528 42.5885 217.023 41.814C224.358 38.035 231.654 37.8747 239.014 41.7472C240.697 42.6285 241.011 43.4965 240.031 45.3126C232.735 58.9732 240.358 79.9115 250.782 87.1758C252.905 88.658 255.115 89.9399 257.665 90.1936C259.787 90.4073 260.415 91.4889 260.44 93.6789C260.465 96.7635 261.206 99.7814 260.541 102.933C260.139 104.842 259.636 105.029 258.079 104.322C247.743 99.5411 236.867 97.9253 225.676 98.1924C216.307 98.406 207.214 100.222 198.561 104.108C196.438 105.056 195.924 104.882 195.497 102.265C194.956 98.9669 195.848 95.8555 195.71 92.664C195.647 91.2886 196.376 90.5942 197.519 90.3672C207.164 88.5645 212.238 81.2735 216.018 72.6472C218.003 68.107 219.183 63.233 218.945 58.5325L218.97 58.5459Z" fill="#B4B4B4"/>
<path d="M228.979 304.423C210.166 304.023 192.658 301.312 175.364 296.932C170.805 295.77 166.309 294.301 161.75 293.153C159.841 292.672 159.175 291.697 159.301 289.681C159.452 287.358 159.477 285.007 159.351 282.671C159.226 280.12 159.929 279.265 162.441 280.04C171.559 282.857 180.815 285.034 190.159 286.81C206.247 289.881 222.486 291.337 238.801 290.295C257.275 289.12 275.398 285.461 293.245 280.254C296.686 279.252 296.711 279.319 296.736 283.138C296.787 292.312 296.812 292.392 288.761 294.729C274.758 298.775 260.566 301.753 246.085 303.208C240.057 303.809 234.016 304.089 228.992 304.423H228.979Z" fill="#B4B4B4"/>
<path d="M229.382 277.543C205.594 277.075 183.817 272.976 162.391 266.433C161.009 266.019 160.507 265.404 160.833 263.842C161.461 260.824 161.951 257.766 162.466 254.708C162.793 252.785 163.509 252.224 165.493 252.865C176.985 256.524 188.614 259.489 200.495 261.372C215.717 263.789 230.939 264.483 246.299 262.627C261.47 260.797 276.303 257.419 290.897 252.772C292.718 252.198 293.383 252.719 293.647 254.575C294.087 257.753 294.551 260.931 295.192 264.069C295.493 265.551 295.003 266.045 293.785 266.419C281.151 270.292 268.353 273.216 255.329 275.192C246.223 276.581 237.08 277.049 229.394 277.556L229.382 277.543Z" fill="#B4B4B4"/>
<path d="M295.455 306.6C295.732 310.606 294.765 314.251 294.287 317.95C294.124 319.232 293.157 319.446 292.278 319.726C280.799 323.465 269.144 326.43 257.301 328.406C247.002 330.129 236.628 331.304 226.166 331.104C211.309 330.823 196.702 328.433 182.247 324.921C176.256 323.465 170.378 321.542 164.425 319.927C162.692 319.459 161.65 318.698 161.65 316.602C161.65 315.173 161.298 313.757 161.11 312.329C160.356 306.279 160.331 306.386 165.995 307.989C178.893 311.648 191.98 314.211 205.243 315.921C216.91 317.43 228.603 317.71 240.258 316.962C257.979 315.841 275.373 312.329 292.504 307.348C293.396 307.094 294.3 306.867 295.443 306.573L295.455 306.6Z" fill="#B4B4B4"/>
<path d="M291.06 333.627C290.658 337.901 289.176 341.119 288.46 344.551C288.209 345.739 287.254 346.22 286.187 346.594C273.188 351.134 259.963 354.619 246.386 356.555C238.813 357.637 231.215 358.131 223.591 357.824C208.093 357.183 193.01 353.951 178.165 349.291C177.361 349.037 176.582 348.663 175.753 348.557C169.838 347.782 166.346 344.524 165.882 337.981C165.794 336.792 165.354 335.617 164.89 333.627C207.013 347.502 248.848 347.635 291.047 333.627H291.06Z" fill="#B4B4B4"/>
<path d="M282.457 361.482C279.945 368.226 277.646 373.18 270.94 375.584C255.078 381.286 239.127 385.639 222.273 384.491C207.579 383.489 193.487 379.443 180.074 373.073C176.181 371.217 175.766 366.076 173.443 361.362C210.078 374.061 246.022 374.061 282.457 361.469V361.482Z" fill="#B4B4B4"/>
<path d="M265.376 391.902C256.02 404.828 244.377 413.841 228.59 415.017C223.818 415.377 219.07 414.002 214.587 412.025C205.104 407.859 197.519 401.169 191.088 392.569C192.482 391.408 193.512 392.222 194.53 392.516C207.164 396.268 220 398.605 233.149 397.817C242.631 397.243 251.988 395.507 261.119 392.636C262.513 392.195 263.882 391.568 265.401 391.915H265.389L265.376 391.902Z" fill="#B4B4B4"/>
<path d="M164.99 0.0174859C167.665 0.0976067 170.089 1.19259 172.425 2.40776C185.512 9.20468 198.147 16.7628 208.872 27.4589C210.392 28.9678 211.723 30.6904 213.079 32.373C213.557 32.9739 214.825 33.508 214.009 34.4561C213.192 35.4176 212.527 34.2291 211.987 33.6682C207.729 29.2883 202.756 26.0434 197.443 23.3727C190.234 19.7406 182.485 17.8043 174.899 15.3873C170.906 14.1188 166.811 13.0638 163.169 10.7937C159.514 8.52365 158.51 4.8648 160.582 1.99381C161.725 0.404741 163.245 -0.0492844 165.003 0.00412953L164.99 0.0174859Z" fill="#B4B4B4"/>
<path d="M241.727 34.4558C244.641 29.8488 248.057 26.3235 251.737 23.1854C261.646 14.746 272.585 8.02924 284.027 2.23383C286.363 1.04537 288.774 -0.0496127 291.499 0.0305082C293.697 0.0972755 295.33 1.03202 296.285 3.14187C297.252 5.23837 296.398 7.04108 295.255 8.69691C293.622 11.0738 291.098 11.9552 288.636 12.8766C279.581 16.255 270.149 18.3515 261.232 22.2106C254.776 25.0149 248.961 28.834 243.913 33.9483C243.536 34.3222 243.172 34.7495 241.727 34.4691V34.4558Z" fill="#B4B4B4"/>
<path d="M263.517 70.3503C263.241 72.9008 263.568 76.2125 260.905 77.2407C258.305 78.2422 256.597 75.4513 255.128 73.5551C251.184 68.4942 249.275 62.6186 249.74 56.0087C249.891 53.9255 250.092 51.335 252.038 50.5204C254.048 49.6791 255.718 51.562 257.062 53.111C261.232 57.9716 263.254 63.767 263.53 70.3637L263.517 70.3503Z" fill="#B4B4B4"/>
<path d="M206.31 57.9581C206.097 64.6215 204.15 70.5371 199.503 75.2241C198.285 76.4527 197.016 77.9082 195.183 77.3206C193.424 76.7598 193.223 74.8502 193.048 73.2077C192.131 64.8618 194.379 57.5975 200.345 52.0425C203.685 48.9178 205.682 49.946 206.298 54.6331C206.436 55.7147 206.323 56.8497 206.323 57.9581H206.31Z" fill="#B4B4B4"/>
</svg>
