<svg width="564" height="512" viewBox="0 0 564 512" fill="none" xmlns="http://www.w3.org/2000/svg">
<path d="M339.029 123.985C339.029 142.964 338.904 207.029 339.065 225.99C339.208 242.306 332.077 250.973 316.082 253.35C305.269 254.958 301.927 252.045 301.945 241.144C301.963 226.294 301.945 156.813 301.945 139.532C301.945 131.723 301.516 126.326 301.516 126.326C301.516 126.326 264.754 125.79 261.626 125.826C228.277 126.165 194.928 126.684 161.579 126.701C158.684 126.701 154.985 124.021 153.126 121.501C150.749 118.302 149.873 113.996 147.979 109.26C150.785 109.26 152.697 109.224 154.609 109.26C202.506 110.225 250.385 111.261 298.281 111.923C300.426 111.958 304.465 108.759 304.519 106.972C305.019 91.854 304.805 76.6998 304.805 59.9373C294.582 61.1525 285.342 62.3498 276.067 63.3327C240.251 67.1034 204.418 70.874 168.585 74.3588C166.19 74.5911 163.581 72.5896 161.079 71.6246L161.865 68.8904C184.062 63.565 206.438 58.8829 228.42 52.807C277.711 39.1718 326.805 24.8576 375.935 10.722C379.634 9.66764 383.709 8.59542 386.568 6.23651C395.88 -1.44779 404.583 0.660923 413.823 6.20077C419.935 9.84635 426.905 12.1159 432.749 16.101C437.003 18.996 441.006 23.1777 443.419 27.699C447.279 34.9365 443.133 41.8166 435.055 40.7444C404.297 36.6699 376.078 49.4831 346.482 52.8249C339.422 53.6112 337.135 56.9529 337.439 63.9939C337.993 76.7713 337.725 89.6023 337.617 102.415C337.564 109.081 340.459 112.226 347.268 112.191C377.936 112.083 408.622 112.298 439.29 111.905C442.489 111.869 446.439 109.349 448.673 106.794C454.714 99.8957 460.004 92.3722 466.938 83.3298C479.949 93.4623 492.656 103.023 504.862 113.191C507.132 115.086 507.454 119.339 508.669 122.502C505.416 123.592 502.164 125.593 498.911 125.611C462.577 125.844 426.244 125.79 389.91 125.79C376.596 125.79 339.53 123.36 339.011 123.985H339.029Z" fill="black"/>
<path d="M72.8457 183.369C71.3266 185.674 69.8969 188.069 68.2527 190.303C48.0932 217.555 27.9695 244.843 7.57767 271.917C6.09431 273.901 2.57355 274.348 0 275.527C0.428925 272.739 0.0893609 269.505 1.41188 267.217C44.4295 192.251 77.6711 113.209 99.9931 29.665C102.442 20.5332 103.532 11.0261 105.569 0C111.395 1.60834 117.096 2.6627 122.387 4.75355C132.591 8.81015 142.957 12.7238 152.483 18.0671C160.936 22.8027 160.561 30.2547 151.625 34.079C144.673 37.0455 142.171 42.085 139.526 48.2324C127.516 76.0925 115.345 103.881 102.781 131.491C100.1 137.406 100.458 140.516 106.695 143.143C110.126 144.59 114.076 146.985 115.649 150.058C117.15 152.989 116.453 157.475 115.613 161.031C114.541 165.588 110.895 169.877 110.913 174.273C111.36 276.438 112.11 378.604 112.914 480.77C113.075 500.677 103.192 511.203 83.408 511.453C73.2389 511.578 70.5581 509.166 70.9156 498.783C71.6662 477.66 73.4176 456.537 73.6142 435.414C74.347 354.693 74.615 273.972 75.0618 193.233C75.0618 190.124 75.0618 187.032 75.0618 183.923C74.3291 183.762 73.5785 183.601 72.8457 183.423V183.369Z" fill="black"/>
<path d="M507.829 323.152C493.603 311.697 478.984 300.76 464.025 289.287C456.573 299.152 450.711 307.801 443.848 315.539C441.149 318.577 436.181 321.204 432.213 321.24C392.019 321.651 351.826 321.49 311.632 321.454C309.094 321.454 306.574 321.115 302.374 320.811C307.646 311.768 311.507 303.351 317.118 296.328C319.853 292.915 325.858 292.147 330.379 290.109C339.19 286.16 340.816 279.19 333.4 273.811C320.014 264.108 304.465 259.658 290.686 256.924C282.161 277.082 274.119 295.792 266.362 314.628C264.289 319.685 261.394 321.704 255.693 321.633C227.705 321.311 199.718 321.776 171.731 321.293C160.561 321.115 149.427 319.256 138.15 318.148C139.99 332.302 142.957 336.322 150.696 336.197C182.543 335.679 214.391 335.214 246.239 334.803C248.955 334.768 251.69 335.232 255.621 335.554C252.619 340.879 250.814 345.025 248.222 348.564C232.048 370.598 215.91 392.668 199.289 414.381C192.659 423.048 193.338 426.961 203.793 430.142C221.79 435.593 230.458 432.966 242.593 417.294C246.364 412.415 249.67 410.646 255.961 412.504C272.206 417.276 288.702 421.171 305.073 425.55C307.146 426.104 309.005 427.39 311.936 428.82C290.9 445.279 268.793 457.288 245.309 466.777C209.744 481.145 172.535 488.632 134.557 492.993C131.412 493.35 128.517 495.995 125.514 497.568C128.677 498.801 131.894 501.231 134.968 501.07C157.558 499.891 180.22 499.194 202.649 496.478C252.655 490.42 299.747 475.712 340.924 445.457C345.624 441.991 349.663 441.222 354.721 444.189C373.933 455.447 393.539 466.044 412.358 477.892C423.134 484.683 432.463 493.708 442.793 501.249C453.052 508.755 464.651 512.132 477.375 509.255C493.353 505.663 499.197 488.007 488.045 476.07C483.684 471.405 478.18 467.009 472.336 464.615C443.49 452.784 414.377 441.58 385.3 430.339C379.616 428.141 373.629 426.693 366.766 424.585C369.054 421.868 370.537 420.135 372.003 418.384C383.173 404.856 394.593 391.542 405.37 377.71C409.945 371.849 413.877 366.452 421.669 363.861C431.373 360.644 432.106 352.853 423.992 346.383C420.328 343.453 415.789 341.648 411.714 339.217C410.213 338.324 408.944 337.073 406.013 334.768C413.215 334.768 418.255 334.768 423.295 334.768C449.495 334.768 475.695 334.839 501.896 334.607C504.88 334.571 509.259 333.588 510.42 331.569C511.457 329.764 509.884 324.76 507.883 323.152H507.829ZM377.472 347.295C361.762 369.222 345.713 390.917 329.521 412.486C328.217 414.22 324.785 415.542 322.605 415.238C299.747 412.004 276.925 408.376 254.031 404.856C267.131 382.678 279.713 361.18 292.58 339.843C293.903 337.645 296.923 335.054 299.193 335.018C325.911 334.678 352.63 334.803 381.189 334.803C379.777 339.825 379.652 344.275 377.49 347.277L377.472 347.295Z" fill="black"/>
<path d="M118.061 265.501C125.764 263.268 131.555 260.676 138.65 257.12C142.045 255.798 149.766 253.367 152.018 250.705C154.538 249.811 158.934 248.203 161.097 246.88C165.547 244.486 171.052 240.429 175.341 237.767C180.702 235.211 187.654 232.566 192.265 228.831C203.614 224.971 215.803 216.644 227.151 218.663C227.151 218.663 243.969 215.16 250.135 210.425C251.636 208.012 256.05 204.938 258.784 203.777C260.536 202.008 265.88 198.434 267.917 196.861C273.904 193.752 282.876 191.446 289.453 189.945C291.847 188.337 297.048 185.031 299.568 183.673C309.862 181.189 314.974 169.877 325.178 167.482C327.949 165.748 330.862 162.21 332.846 159.69C333.453 158.993 334.311 156.206 334.972 155.348C336.045 156.027 336.634 149.772 337.385 150.219C338.207 152.882 341.031 157.474 343.926 158.672C345.57 163.229 356.812 176.435 365.873 191.822C377.15 206.547 381.207 217.912 384.227 218.931C385.532 222.72 403.189 234.032 405.191 235.997C409.337 238.267 415.539 240.554 418.702 243.95C421.311 244.271 425.35 246.577 427.084 248.185C429.693 249.74 435.68 251.598 438.718 252.438C445.939 252.063 452.676 256.888 459.486 257.71L470.816 260.498L474.963 260.748C482.701 261.499 497.195 263.214 509.134 264.554C512.69 264.948 520.625 263.446 522.52 260.408C525.415 255.798 529.186 256.656 529.186 256.656C536.531 242.145 541.285 246.219 548.47 239.679C549.202 233.871 573.83 214.892 559.461 213.427C550.882 212.551 540.195 212.265 530.991 210.675C491.494 206.35 448.923 201.043 412.447 190.285C400.902 183.655 388.427 176.221 380.134 166.213C376.864 161.031 368.321 156.188 363.228 151.005C357.902 145.323 351.164 144.465 349.234 137.567C348.823 136.78 348.037 135.923 347.089 135.065C346.696 132.527 347.089 129.507 347.84 127.506C348.34 123.628 349.895 119.089 350.914 114.371C352.29 107.991 349.538 105.596 347.125 100.217C342.05 85.5994 327.877 76.0744 314.652 64.4229C311.685 69.1228 310.22 72.6969 307.485 75.5562C305.341 77.8078 303.786 79.7557 302.749 81.5249C302.338 82.0074 302.034 82.4542 301.856 82.8473C297.352 93.0871 311.757 97.7334 307.003 105.99C283.019 144.483 251.743 179.705 211.138 204.653C189.96 220.843 164.618 232.441 141.634 245.969C134.307 250.276 124.531 255.53 114.487 261.695C111.002 263.84 113.272 266.824 118.044 265.448L118.061 265.501Z" fill="black"/>
<path d="M118.061 265.501C125.764 263.268 131.555 260.676 138.65 257.12C142.045 255.798 149.766 253.367 152.018 250.705C154.538 249.811 158.934 248.203 161.097 246.88C165.547 244.486 171.052 240.429 175.341 237.767C180.702 235.211 187.654 232.566 192.265 228.831C203.614 224.971 215.803 216.644 227.151 218.663C227.151 218.663 243.969 215.16 250.135 210.425C251.636 208.012 256.05 204.938 258.784 203.777C260.536 202.008 265.88 198.434 267.917 196.861C273.904 193.752 282.876 191.446 289.453 189.945C291.847 188.337 297.048 185.031 299.568 183.673C309.862 181.189 314.974 169.877 325.178 167.482C327.949 165.748 330.862 162.21 332.846 159.69C333.453 158.993 334.311 156.206 334.972 155.348C336.045 156.027 336.634 149.772 337.385 150.219C338.207 152.882 341.031 157.474 343.926 158.672C345.57 163.229 356.812 176.435 365.873 191.822C377.15 206.547 381.207 217.912 384.227 218.931C385.532 222.72 403.189 234.032 405.191 235.997C409.337 238.267 415.539 240.554 418.702 243.95C421.311 244.271 425.35 246.577 427.084 248.185C429.693 249.74 435.68 251.598 438.718 252.438C445.939 252.063 452.676 256.888 459.486 257.71L470.816 260.498L474.963 260.748C482.701 261.499 497.195 263.214 509.134 264.554C512.69 264.948 520.625 263.446 522.52 260.408C525.415 255.798 529.186 256.656 529.186 256.656C536.531 242.145 541.285 246.219 548.47 239.679C549.202 233.871 573.83 214.892 559.461 213.427C550.882 212.551 540.195 212.265 530.991 210.675C491.494 206.35 448.923 201.043 412.447 190.285C400.902 183.655 388.427 176.221 380.134 166.213C376.864 161.031 368.321 156.188 363.228 151.005C357.902 145.323 351.164 144.465 349.234 137.567C348.823 136.78 348.037 135.923 347.089 135.065C346.696 132.527 347.089 129.507 347.84 127.506C348.34 123.628 349.895 119.089 350.914 114.371C352.29 107.991 349.538 105.596 347.125 100.217C342.05 85.5994 327.877 76.0744 314.652 64.4229C311.685 69.1228 310.22 72.6969 307.485 75.5562C305.341 77.8078 303.786 79.7557 302.749 81.5249C302.338 82.0074 302.034 82.4542 301.856 82.8473C297.352 93.0871 311.757 97.7334 307.003 105.99C283.019 144.483 251.743 179.705 211.138 204.653C189.96 220.843 164.618 232.441 141.634 245.969C134.307 250.276 124.531 255.53 114.487 261.695C111.002 263.84 113.272 266.824 118.044 265.448L118.061 265.501Z" fill="#FA5050"/>
</svg>
