<svg width="545" height="271" viewBox="0 0 545 271" fill="none" xmlns="http://www.w3.org/2000/svg">
<path d="M452.474 120.234C445.502 119.525 436.816 119.299 429.329 118.009C397.229 114.524 362.623 110.241 332.979 101.559C323.593 96.2134 313.462 90.2051 306.708 82.1347C304.054 77.9569 297.114 74.0497 292.97 69.8646C288.639 65.2749 283.167 64.5802 281.6 59.0204C281.266 58.3891 280.621 57.6895 279.855 57.0071C279.531 54.9596 279.852 52.527 280.471 50.9086C280.883 47.7764 282.145 44.1105 282.97 40.3008C284.085 35.1553 281.853 33.2151 279.894 28.8789C275.765 17.0792 264.256 9.3988 253.498 0C251.084 3.79755 249.889 6.67374 247.677 8.97956C245.931 10.7979 244.667 12.3652 243.823 13.8008C243.494 14.1933 243.236 14.5564 243.096 14.8733C239.431 23.1387 251.146 26.8851 247.284 33.5539C227.796 64.6168 202.372 93.0399 169.369 113.183C152.155 126.243 131.557 135.607 112.877 146.525C106.926 150.003 98.9716 154.242 90.8111 159.219C87.978 160.95 89.8266 163.36 93.7007 162.241C99.9609 160.435 104.665 158.354 110.439 155.485C113.198 154.42 119.469 152.448 121.3 150.303C123.347 149.579 126.929 148.285 128.687 147.215C132.308 145.282 136.784 142.011 140.263 139.866C144.623 137.808 150.274 135.671 154.023 132.648C163.251 129.528 173.16 122.816 182.383 124.444C182.383 124.444 196.058 121.614 201.068 117.802C202.291 115.852 205.873 113.38 208.092 112.437C209.519 111.006 213.857 108.128 215.511 106.85C220.37 104.337 227.669 102.475 233.011 101.264C234.96 99.972 239.18 97.303 241.235 96.1964C249.597 94.1879 253.748 85.0645 262.046 83.1292C264.302 81.7301 266.664 78.8783 268.277 76.843C268.775 76.2824 269.46 74.0375 270.008 73.3404C270.884 73.8913 271.356 68.8457 271.962 69.2065C272.632 71.3514 274.933 75.0637 277.282 76.0216C278.62 79.6973 287.76 90.3611 295.127 102.782C304.299 114.665 307.589 123.835 310.047 124.661C311.11 127.722 325.454 136.846 327.082 138.44C330.448 140.273 335.495 142.12 338.068 144.862C340.197 145.118 343.474 146.983 344.876 148.287C346.995 149.545 351.865 151.039 354.33 151.719C360.193 151.417 365.675 155.307 371.211 155.975L380.427 158.22L383.798 158.422C390.088 159.027 401.874 160.413 411.574 161.496C414.463 161.817 420.915 160.606 422.459 158.151C424.806 154.427 427.875 155.129 427.875 155.129C433.851 143.415 437.712 146.71 443.541 141.426C444.135 136.743 464.16 121.424 452.474 120.234Z" fill="black"/>
<path d="M523.346 225.535C524.863 223.117 528.445 218.742 530.522 216.775H530.424C530.522 216.677 530.23 216.677 530.618 216.677C531.425 216.468 535.786 213.613 535.756 213.982C536.338 213.599 536.338 213.599 536.824 213.599C537.212 213.694 538.179 214.849 537.696 215.522C536.92 216.775 535.078 220.336 534.011 220.721C533.139 220.914 531.489 222.262 531.104 222.549C529.321 223.836 523.702 224.901 521.6 225.535C520.631 225.823 524.026 225.823 523.346 225.535ZM479.62 209.843C479.909 209.94 481.559 209.65 481.073 209.555C481.655 209.072 481.559 209.17 481.365 208.977L479.715 207.052C479.767 205.719 478.674 205.882 478.164 204.741C478.068 204.646 477.97 204.549 477.776 204.261C477.776 203.683 477.776 203.876 477.68 203.683V203.106C477.68 203.008 477.197 202.623 477.003 202.43C477.157 202.209 477.062 202.126 476.904 201.758C476.615 201.07 477.116 201.061 476.129 200.602C476.227 200.697 476.033 200.025 476.033 199.737C475.935 199.352 475.839 199.352 475.451 199.254C475.839 198.774 474.869 198.099 474.093 197.426C473.953 197.258 472.566 196.9 472.348 196.751L472.542 196.656C472.348 196.366 470.214 195.596 469.343 196.174L469.245 196.078L468.857 196.656C468.567 196.656 468.469 196.559 468.663 197.136C468.179 197.426 468.275 197.426 468.469 197.714C468.304 198.275 468.84 198.864 469.827 199.832C469.439 200.122 469.731 200.025 470.119 200.122C470.119 200.795 470.021 200.602 470.507 200.795C470.214 201.083 470.99 201.758 471.378 202.238C471.766 202.913 471.766 203.008 472.736 203.778C472.25 203.778 472.93 204.356 473.607 204.934C474.147 205.697 477.228 208.785 477.972 208.785L479.038 209.748H479.715C479.715 209.748 479.62 209.748 479.62 209.843ZM461.683 246.326C466.554 245.344 470.384 242.895 474.383 240.55C476.188 239.443 477.734 237.89 479.62 237.086C479.008 239.777 478.726 241.354 481.849 243.15C482.512 244.452 484.363 244.908 485.824 244.786C486.332 244.827 486.693 244.723 487.181 244.401C487.846 243.411 487.245 243.511 487.375 242.573C487.117 242.178 487.842 242.185 487.569 241.61C487.181 239.589 487.957 237.856 488.345 236.701C489.626 232.221 491.097 227.263 492.806 223.224C493.095 222.357 493.581 219.086 496.004 219.278C496.23 219.434 498.685 219.863 498.914 219.951C498.526 220.241 499.785 221.586 499.785 222.647L498.428 226.978C498.138 227.748 498.138 227.843 498.234 228.421C498.322 229.386 497.988 230.824 497.652 231.694C497.652 232.657 497.75 233.813 497.072 234.485L497.266 234.583C496.086 234.673 496.712 236.426 496.297 235.833C495.933 237.688 496.282 238.953 495.133 240.55C493.969 242.188 494.357 243.438 494.647 244.883C494.647 244.979 494.939 244.786 495.035 244.883C495.612 245.498 497.065 245.273 497.652 244.979C497.833 244.886 498.558 244.701 498.621 244.786L498.234 244.691C498.302 244.669 498.555 244.764 498.621 244.786C499.302 244.208 500.173 243.438 500.367 243.15L499.979 243.246C499.92 243.129 500.374 242.955 500.465 242.86C500.797 242.517 501.865 241.803 502.113 241.61C503.215 240.735 503.895 239.375 505.022 238.914C505.893 238.337 507.251 237.566 507.639 236.894C508.842 235.231 514.987 232.416 516.948 231.022C515.591 230.444 513.165 230.444 513.165 231.309C513.111 235.433 513.742 240.659 518.691 242.283C519.551 243.211 521.679 243.197 522.958 243.823C524.731 244.718 526.216 243.66 527.902 243.631C528.204 243.501 528.583 243.504 528.872 243.631C528.897 243.614 529.25 243.146 529.164 243.15L531.2 242.475C531.877 242.475 532.557 242.475 533.041 242.09C536.004 240.94 538.955 238.461 540.894 236.701L540.799 236.508C541.83 235.221 543.912 233.547 543.222 232.272C542.426 230.152 539.694 231.816 539.053 232.562L538.179 233.908C537.89 233.908 537.6 234.005 537.502 234.293C537.03 234.368 535.781 235.19 535.756 235.353L535.562 235.256C534.511 236.564 532.442 237.21 531.295 237.856C528.767 239.163 528.953 239.026 524.898 239.204C521.628 238.463 521.647 230.468 522.958 228.711C528.671 227.804 529.471 227.19 531.489 226.305C534.735 225.152 536.176 222.305 538.859 221.009C541.95 219.215 544.606 214.798 544.192 213.694L543.708 213.886H544.096C544.282 212.314 543.381 211.217 541.67 209.843C525.668 209.343 522.997 218.167 515.686 226.688C513.595 229.964 507.509 232.372 505.505 234.678C505.311 234.678 504.536 235.063 505.505 234.583C505.893 235.16 505.41 234.39 505.311 234.198L505.117 234.39C505.41 234.485 505.216 232.657 505.216 232.562C505.567 229.798 507.094 225.991 507.737 223.224C508.245 220.134 511.267 216.763 507.737 214.367C507.656 214.364 507.425 214.503 507.349 214.464L507.639 214.367C503.745 211.71 501.661 213.699 498.04 215.042C496.297 216.87 496.392 216.967 493.677 217.255C491.389 217.321 491.244 217.674 490.962 218.41L491.254 218.508C490.672 218.603 494.065 220.624 494.065 220.048C493.871 219.373 494.647 215.137 494.745 214.752C495.177 213.479 496.284 211.827 496.103 211.288C496.154 211.022 495.995 209.558 496.004 209.265C494.551 208.495 492.224 208.977 491.06 209.843C489.508 210.998 489.025 211.576 488.539 212.636C486.138 213.482 485.286 215.293 483.4 216.485C482.787 216.936 482.823 217.223 483.4 217.738C483.499 217.916 484.495 218.8 484.854 219.086C487.142 220.565 484.814 222.956 484.564 224.765C484.304 226.724 483.818 227.894 482.917 229.769C482.043 231.792 480.977 234.293 480.685 235.353C479.909 237.566 487.569 229.289 484.37 231.214C481.679 232.348 479.482 234.29 477.098 235.546C473.637 237.31 470.347 238.819 467.305 239.779C465.368 240.55 460.554 242.3 460.421 239.204C460.223 237.6 459.594 234.507 460.52 233.14L460.326 233.042C465.052 231.463 471.803 228.921 474.965 225.245C475.215 224.633 476.654 223.921 476.904 223.609C477.884 223.107 477.825 222.184 477.97 221.299C479.134 219.856 479.521 218.893 479.426 217.352C479.863 214.569 476.59 211.944 473.706 211.383C470.701 211.288 470.313 210.806 470.99 211.383C470.801 211.388 470.06 211.705 470.119 211.768C467.732 211.995 465.67 213.772 464.494 215.042C464.3 215.329 464.494 215.234 464.106 215.427C463.912 215.522 463.429 215.812 463.429 215.715L462.847 216.485C463.912 216.485 462.847 216.39 462.653 216.677C462.555 216.87 462.555 217.16 462.459 217.255C460.714 218.123 459.84 218.988 459.356 219.856C459 220.531 458.043 220.631 458.192 221.491C458.482 221.299 458.386 221.971 458.386 222.357C457.512 223.802 456.739 224.765 456.447 225.823C455.74 228.177 454.225 230.31 453.538 232.37C453.854 232.089 454.058 231.916 454.507 231.985C454.507 231.887 454.412 231.887 454.412 231.887C453.69 232.306 453.761 233.03 453.344 233.718C452.762 234.678 452.18 234.968 452.86 235.833C453.427 236.506 453.049 238.702 453.15 239.877C453.763 242.032 453.638 243.519 456.059 244.786C455.769 244.883 456.447 245.749 457.223 245.749C457.416 245.846 458.87 245.941 458.774 246.134C459.493 246.036 460.858 246.702 461.683 246.326ZM458.968 195.018L448.011 206.957C447.712 205.251 448.2 203.028 449.175 201.853C449.87 201.231 450.083 200.064 450.533 199.352C450.805 198.404 451.758 197.368 451.598 196.464C451.598 196.078 451.598 195.886 451.89 195.596C453.812 193.39 455.173 191.53 456.641 189.339C457.608 187.764 458.588 186.543 459.55 185.49C460.954 183.652 462.879 180.325 464.978 180.196C465.999 180.269 465.965 180.099 466.723 179.521C467.931 179.009 468.759 179.484 470.021 179.328C469.387 179.689 469.39 179.643 470.021 180.003C469.537 180.003 469.537 180.003 469.827 180.389C467.769 186.728 462.832 190.58 458.968 195.018ZM460.809 231.407C460.326 229.674 465.366 220.914 465.948 219.951C467.094 218.586 468.948 217.045 469.925 215.812C471.101 214.506 471.881 214.725 473.318 214.849C473.512 215.234 473.801 216.292 473.801 217.545C473.801 217.738 474.093 217.833 473.9 217.93C473.706 218.025 473.026 217.93 473.318 218.218C472.832 218.603 472.638 218.795 472.832 218.893C471.96 220.624 471.184 222.164 470.701 223.319C469.854 223.648 469.208 224.112 469.149 224.86L469.439 224.957C467.119 225.204 467.003 227.933 464.978 227.843L464.59 227.748L464.106 228.421C463.137 229.769 460.132 230.444 459.55 230.347C458.192 230.154 461.101 232.657 460.809 231.407ZM439.188 245.654C440.359 245.7 441.368 245.576 442.485 245.556C443.398 245.529 444.258 246.212 445.2 245.654C446.84 244.479 452.052 241.795 448.981 239.877C446.833 238.631 444.032 241.137 442.097 241.803C437.482 243.06 436.264 237.176 437.639 233.62C437.83 233.235 437.83 233.525 437.83 233.14C437.928 232.947 437.928 232.657 437.928 232.657L438.218 230.444C437.83 230.251 437.735 230.154 437.735 230.059C437.347 230.924 438.51 231.117 438.606 230.251C438.704 229.481 438.898 226.69 439.286 225.823C441.734 222.388 440.04 222.985 441.127 221.009C442.485 219.663 442.389 218.603 442.485 217.545C442.549 215.756 443.177 215.039 443.941 213.984C443.98 213.811 444.778 212.346 444.908 212.153C446.362 210.949 448.632 209.377 449.563 208.785L449.855 208.88C450.145 208.592 450.822 207.822 450.822 207.822H450.727C451.436 207.354 453.155 205.26 453.15 205.319C455.089 203.778 461.877 197.426 463.137 195.788C463.719 195.501 464.3 195.018 463.817 194.923C464.688 194.153 466.336 192.035 466.723 191.362C468.474 190.718 469.041 187.642 470.119 186.453C472.107 185.059 473.794 180.84 473.706 180.291L472.736 180.389C472.736 180.484 473.124 180.771 473.026 180.771L473.512 180.484C473.607 178.078 473.706 175.767 468.761 174.322C461.489 174.997 458.968 177.595 457.706 178.848C457.127 179.426 457.998 179.811 456.739 179.136C456.739 179.521 456.641 180.003 456.545 180.291L456.739 180.389C456.309 180.852 451.547 185.232 451.308 185.585C451.014 185.944 450.889 186.477 450.727 186.163C450.155 187.718 449.055 188.825 448.303 189.917C447.722 190.687 447.528 191.169 446.946 192.227C446.364 193.48 446.266 194.731 446.072 194.248C444.633 195.394 444.371 196.125 443.941 197.426C442.726 200.164 441.204 203.006 440.062 205.511C439.051 207.815 437.199 211.3 436.281 213.501C435.601 214.559 435.019 215.329 435.311 216.582C434.767 218.242 431.492 226.008 430.851 227.458L430.753 227.266C430.713 233.023 429.783 235.241 431.919 240.742C431.931 243.467 436.171 245.51 439.188 245.654ZM408.358 245.846C409.941 246.436 412.49 245.408 412.914 245.076C412.914 245.076 412.816 245.269 412.72 245.171L412.816 244.883L412.622 244.691C415.141 242.982 417.665 240.935 417.665 240.742C418.124 240.118 419.796 237.51 420.282 236.989C421.745 235.628 422.347 233.445 423.191 231.985C423.869 230.829 424.355 229.866 424.644 229.191C424.937 228.518 425.226 228.036 425.131 227.458C425.131 225.342 426.584 223.897 427.846 224.282C428.035 224.424 429.056 224.587 429.299 224.475C429.881 224.09 429.979 224.667 430.367 224.282C430.463 224.38 430.657 224.475 430.851 224.475C430.559 224.38 430.753 225.823 430.753 226.593C430.851 227.556 430.753 227.075 431.334 228.614L435.019 219.663C433.291 219.973 433.379 222.391 431.528 222.357C431.14 222.357 429.979 222.357 430.559 222.549C423.451 223.02 429.385 214.679 419.604 212.924C417.613 212.955 416.904 213.806 415.63 214.367C413.477 215.047 412.075 216.429 410.781 217.64C406.853 221.34 404.145 225.976 402.444 230.924C401.668 232.197 401.739 232.735 401.28 233.813C397.764 239.226 404.477 247.611 408.358 245.846ZM409.617 240.647C408.746 241.032 408.358 241.225 407.678 239.974C407.678 240.455 407.194 239.204 406.902 238.144C407.096 237.086 407.29 236.603 407.582 236.026C408.085 234.495 408.608 233.189 409.423 231.309C410.361 229.152 410.968 227.38 411.846 225.728C412.799 224.426 413.803 222.712 414.562 221.394C415.801 218.561 416.376 218.206 417.373 216.967C417.567 216.775 417.567 216.775 417.761 217.062C418.588 218.783 420.434 221.53 420.088 223.995C420.181 227.551 418.303 230.556 417.083 233.235C413.327 238.817 412.821 238.351 409.617 240.647ZM379.173 245.941C381.986 245.941 387.608 241.32 388.094 240.455C388.87 238.914 389.84 238.241 389.84 238.241L391.293 236.701C393.019 234.817 393.989 233.864 394.88 232.272L394.686 232.08C395.366 232.14 396.331 230.178 396.724 229.769C397.195 228.996 398.039 227.875 398.467 227.171C400.725 224.414 402.515 221.455 404.187 218.7C406.514 216.005 407.582 213.309 408.358 210.998C407.341 210.021 406.929 210.303 406.32 210.325C404.764 210.177 403.121 213.406 403.607 213.501L399.922 217.062C399.218 218.886 398.125 219.851 397.109 220.624C397.013 220.721 396.819 220.528 397.013 220.914C396.132 222.145 394.03 225.637 393.134 226.69C391.602 228.501 389.818 230.963 388.288 232.08C387.996 232.465 387.512 233.14 387.512 233.14C386.918 234.41 380.815 240.001 379.754 241.127C379.853 241.127 383.729 241.32 383.15 241.32C382.956 241.32 382.082 238.049 382.082 237.566C381.79 235.044 382.082 233.157 382.858 230.251C383.351 228.219 383.805 227.249 383.729 226.208C383.827 225.342 383.923 224.187 384.409 223.319C385.047 222.761 384.677 222.508 384.893 221.876C385.838 219.78 387.252 218.771 386.93 216.485C387.009 214.203 382.762 214.003 381.598 215.042C378.446 219.68 375.559 229.961 374.422 235.256C374.204 236.901 373.848 238.081 374.132 239.684C374.741 244.988 373.624 242.695 376.651 244.786C377.815 246.134 377.719 245.654 378.009 245.749C378.301 245.846 378.785 245.941 379.173 245.941ZM333.411 200.987L334.283 201.18C334.283 200.89 334.477 200.795 334.769 200.697C335.142 200.7 335.866 199.944 336.318 199.64C336.939 199.094 338.103 197.473 338.257 197.811C338.257 197.619 342.33 192.517 342.136 192.71C342.652 192.008 343.678 191.089 343.592 190.302C344.157 189.887 344.807 189.061 344.851 188.474C345.76 187.209 345.244 185.649 344.27 184.622C344.559 184.045 343.977 183.95 343.59 183.95C343.761 182.575 343.177 182.185 341.847 181.832C341.459 181.832 340.489 181.734 340.585 182.312L339.615 185.008L337.869 188.859C337.295 189.093 337.526 189.561 337.192 190.014C336.998 190.207 336.028 191.842 335.932 192.71C335.157 193.383 334.575 194.055 334.671 194.826C334.089 195.211 333.895 195.403 333.799 195.981C333.701 196.271 333.605 196.559 333.507 196.656C332.324 197.616 332.746 199.781 333.411 200.987ZM350.28 247.384C352.02 247.404 353.744 247.333 355.516 247.384C356.002 247.289 355.808 247.192 356.486 247.577C357.745 246.809 358.425 246.712 359.395 246.617C359.795 246.634 360.173 246.409 360.46 246.617C362.692 245.749 363.465 245.461 363.758 245.269C364.241 244.593 366.956 244.593 366.279 244.306C366.861 243.631 366.763 243.631 367.15 243.536C367.15 243.438 367.344 243.438 367.344 243.438C369.284 243.15 368.896 242.573 368.896 242.573C369.947 241.435 370.087 241.435 371.513 240.937C371.682 239.504 372.571 239.992 373.357 239.299L373.551 239.589C373.457 238.768 374.292 239.019 373.84 238.819C374.228 238.337 374.52 237.856 374.52 237.951L374.326 237.856C375.586 237.279 375.004 235.063 374.616 235.546C373.452 236.603 371.417 237.664 370.543 238.144C369.014 239.077 367.423 240.208 365.891 240.647C363.473 241.61 361.31 241.62 359.007 242.38C358.619 242.668 358.619 242.668 358.133 242.668C355.46 242.531 354.61 243.131 351.831 242.475C348.87 241.603 348.755 236.769 349.214 233.715C349.17 232.708 349.251 231.867 349.698 230.539C350.243 229.406 350.321 226.057 351.055 225.823C350.861 225.823 350.861 225.535 351.055 225.535C351.443 225.63 352.123 225.535 352.607 225.535C353.456 225.269 353.596 225.096 354.158 225.15C355.612 225.306 357.127 224.409 358.231 224.38C358.816 224.336 359.655 224.487 360.267 224.38C360.559 224.38 361.236 224.38 361.528 224.187C362.81 223.371 363.576 223.814 364.823 223.609C365.552 223.483 365.852 223.249 366.569 223.319C367.17 223.366 368.461 223.339 368.896 222.934C369.841 223.046 369.65 222.359 370.155 222.454C369.964 222.164 369.672 221.971 369.672 221.971C369.576 221.971 369.866 221.586 369.866 221.299C369.952 220.697 370.096 220.429 370.543 220.241V220.143C369.419 220.238 368.648 219.61 367.344 219.951C367.212 219.29 364.99 219.334 364.727 219.856C365.891 220.241 365.115 219.951 364.823 219.856C364.435 219.758 364.145 219.663 363.465 219.566C361.533 219.497 362.096 220.619 359.879 219.566C358.646 219.5 356.69 219.602 355.42 219.566L354.063 220.048C353.577 220.241 354.257 220.143 353.771 219.373C354.591 217.128 354.954 216.863 355.904 215.042C357.357 212.539 359.395 208.687 360.654 206.859C361.46 205.604 362.395 204.434 362.498 203.298C362.886 203.201 363.176 203.298 363.176 203.298C363.274 203.201 363.465 202.913 363.274 203.008C365.096 201.836 368.992 202.679 370.254 201.373C371.12 201.465 372.537 201.297 373.258 201.083L372.871 201.275C372.677 201.373 373.065 201.18 373.258 201.18L373.357 200.89C374.132 200.697 374.228 200.697 374.326 200.697C374.616 200.602 374.228 200.602 375.102 200.602C375.237 200.41 375.662 200.563 375.78 200.41C375.78 200.505 375.392 200.217 375.49 200.315C375.792 200.502 378.593 200.532 377.525 199.93H377.719C377.621 200.315 378.397 200.122 378.495 200.122C378.682 199.966 378.716 200.042 378.883 200.025C379.56 199.832 380.336 199.447 381.21 199.737C381.5 199.447 381.5 199.447 381.306 199.352C383.376 200.215 383.953 198.399 384.021 196.944C384.021 196.464 384.117 195.693 384.021 196.559C383.123 195.803 382.507 196.203 382.18 196.464C378.716 196.551 375.247 196.917 371.805 197.426C371.616 197.034 370.85 197.485 370.447 197.426C368.181 197.831 365.866 198.243 363.853 198.484C361.676 198.343 359.68 199.118 357.551 199.159C356.478 199.296 354.978 199.052 354.158 199.447C352.973 199.722 351.88 200.273 350.861 200.41C350.28 200.505 349.506 200.697 349.214 200.89C348.308 200.968 348.099 201.682 347.081 201.083C346.57 202.211 346.69 201.926 346.111 201.95C345.36 202.27 344.108 202.855 343.59 203.201L343.396 203.106C343.3 203.298 343.494 203.393 343.3 203.586C343.204 203.586 342.816 203.876 342.912 203.683C342.063 205.073 343.926 204.914 343.59 206.957L344.076 206.667C344.925 206.652 345.833 206.106 346.499 206.187C347.142 206.401 347.704 206.286 348.05 206.089C348.856 206.34 349.656 206.294 350.184 205.994C350.28 205.994 350.572 205.896 350.378 205.896C351.718 205.948 352.253 204.585 352.801 206.282C351.347 207.63 350.28 210.228 349.7 211.383C348.065 214.605 346.916 216.948 345.723 219.856C345.794 218.951 344.878 220.694 344.658 220.721C344.144 220.624 343.165 221.194 343.106 221.586C342.038 221.569 342.964 221.923 342.136 221.684C341.977 221.842 341.842 222.049 341.653 222.262C340.391 223.319 340.295 223.224 340.585 223.897C340.585 224.667 340.973 225.245 343.204 226.208C342.207 230.836 341.38 236.123 342.62 240.742C344.108 243.945 345.996 245.827 349.118 246.904C348.924 247.097 349.796 247.097 350.086 247.097L350.28 247.384ZM304.712 247.482C305.812 247.589 306.863 247.372 307.621 246.617C309.286 244.94 310.82 243.662 310.722 241.705C310.781 238.38 312.062 235.285 313.049 232.562C313.106 232.255 313.219 232.028 313.437 231.792C315.035 230.052 313.948 226.537 315.475 224.667C315.475 224.572 315.669 224.667 315.669 224.475C315.669 224.38 315.764 224.09 315.764 224.09C315.958 222.549 316.346 221.106 317.122 220.048H317.024L317.51 219.663C318.315 217.66 318.531 216.846 319.545 215.234C320.321 214.174 321.001 213.116 321.001 211.961C321.001 211.673 320.903 211.288 321.195 211.383C322.486 209.07 323.959 206.026 324.394 204.356C324.006 203.393 324.588 201.468 324.684 201.468C324.2 202.528 325.557 201.565 326.041 200.602C327.141 198.789 327.436 198.019 328.079 196.751C328.28 195.74 328.413 193.855 329.242 193.383C329.338 192.42 329.532 190.977 329.436 190.687C328.189 189.453 324.6 191.099 324.2 192.325C323.741 192.917 322.953 194.336 322.746 194.826C321.17 196.642 320.665 199.315 319.545 201.275L320.419 201.18V200.987L319.449 201.083C319.255 201.66 319.062 202.143 318.963 202.623C318.583 203.6 318.131 204.68 317.898 205.319C316.852 206.099 316.837 206.847 316.54 207.725C316.511 207.91 316.766 208.049 316.54 208.207C315.219 209.789 314.674 211.907 313.729 213.694C313.729 213.599 313.825 213.599 313.825 213.599C313.872 214.45 312.507 216.726 312.467 216.87C309.953 216.928 307.366 216.619 305.002 218.218C300.536 220.777 298.626 222.829 296.181 226.4C295.574 226.902 294.747 228.967 294.435 229.674C291.114 233.498 289.776 238.558 290.07 243.15C292.334 246.848 295.947 246.643 299.281 244.208C300.202 243.682 303.32 241.149 304.226 240.552C304.376 240.484 304.641 240.43 304.808 240.455C304.466 241.31 304.604 242.478 304.13 244.016C303.867 245.812 302.856 247.05 304.712 247.482ZM302.289 239.397C294.217 245.515 299.311 230.31 301.901 228.326C302.345 227.826 304.155 225.408 304.518 225.052C306.661 222.656 306.794 219.344 310.334 219.758C309.617 219.77 310.854 219.702 310.916 219.566C310.67 224.385 307.879 230.144 305.971 234.1C304.327 236.111 304.216 236.796 303.644 238.241C303.16 238.627 302.677 239.012 302.289 239.397ZM233.644 223.032C232.625 222.51 231.869 222.608 230.443 221.491C231.412 219.856 232.964 216.87 233.74 216.292C235.583 214.752 236.261 213.886 237.133 212.829C238.007 212.356 237.886 210.971 239.17 210.903C239.146 213.233 239.369 216.151 238.102 218.025C236.217 220.209 237.174 224.389 233.644 223.032ZM166.453 247.097C172.067 245.439 177.974 242.57 180.026 237.471L180.319 237.374C180.27 236.192 180.422 234.846 180.414 233.718C179.425 234.468 177.756 233.328 176.923 234.678C177.215 235.063 176.923 234.775 176.828 234.968C176.828 235.16 177.117 235.738 176.729 235.546C175.76 236.603 174.888 237.374 174.306 237.759C172.819 239.55 169.885 240.474 168.296 241.803L164.319 242.283C163.863 239.684 165.264 237.859 165.871 236.026C166.025 233.286 168.262 229.618 169.362 227.171C169.912 226.32 171.427 224.365 171.785 223.512C171.785 223.512 172.173 223.609 172.173 223.224H172.659C172.769 225.028 172.885 226.427 172.659 228.133C173.189 227.519 174.341 228.328 174.888 227.941C177.152 228.136 175.799 227.768 177.022 225.535C177.215 225.245 177.311 225.438 177.311 225.245C177.24 223.007 177.571 220.799 177.311 218.603C176.128 215.444 170.589 219.417 168.198 220.238C167.476 220.624 166.929 221.747 166.453 222.069C165.09 223.278 162.692 225.942 161.702 227.461C161.138 228.311 160.254 229.189 159.763 230.059C158.201 233.237 153.304 238.787 148.421 240.07C146.999 237.995 149.231 235.282 149.778 233.813C150.456 231.792 150.939 230.059 151.327 228.421C151.838 227.029 151.988 226.288 152.395 225.052C153.205 222.944 155.223 219 154.529 217.738C154.43 217.448 152.395 216.485 152.007 217.255C151.492 217.494 150.365 217.879 150.262 218.218C148.948 218.532 148.563 219.363 147.839 219.663L148.033 219.856C147.451 220.336 147.257 220.241 147.257 220.914C146.373 222.132 146.14 223.149 145.995 224.187C145.995 224.572 145.995 224.957 145.899 225.245C145.899 225.342 146.093 225.823 145.801 225.535C145.781 228.002 144.328 229.535 143.766 231.407C143.211 232.784 142.509 234.078 141.925 233.718C141.701 234.027 140.682 234.944 140.663 234.87L140.857 235.063C139.58 235.731 136.941 236.706 135.912 237.471C134.847 238.627 134.265 238.722 132.907 238.627C131.56 233.42 134.847 226.837 136.396 221.876C136.983 220.08 138.758 218.259 138.24 216.005C136.654 216.282 133.85 216.358 132.615 217.16C131.324 218.306 129.551 219.076 129.998 220.336C129.453 220.855 129.406 221.25 129.222 221.971L128.545 223.609C128.82 223.756 128.712 223.87 128.641 224.09C128.687 224.548 128.132 225.243 128.253 225.535C126.73 229.771 126.48 231.365 125.636 234.293C124.978 236.769 124.04 239.706 124.955 242.188C125.4 242.951 126.858 244.479 128.157 244.498C130.153 244.554 132.517 244.857 134.265 243.823C135.097 243.643 135.77 242.324 136.202 241.995C137.812 240.547 139.511 238.773 140.857 237.471C141.262 236.209 142.244 239.014 142.408 239.877C142.391 240.73 143.403 241.471 143.96 242.283C144.674 243.082 145.855 242.846 146.675 242.86C147.338 243.063 149.567 242.741 150.262 242.668L150.164 242.765C151.843 241.873 151.681 241.62 152.395 241.995C152.491 241.803 152.589 241.32 152.685 241.225H152.589C154.919 238.946 156.161 237.454 158.793 234.485C155.535 242.836 155.363 248.542 166.453 247.097ZM106.437 210.518C107.859 207.266 109.582 202.545 111.293 199.445C111.36 198.835 112.86 195.618 113.23 195.484C115.774 194.565 117.588 194.248 119.527 194.538C121.496 194.879 121.796 196.756 121.464 198.967C121.835 201.048 120.303 202.83 119.334 204.163C119.142 204.685 116.373 207.042 116.908 206.379C113.874 208.902 110.316 210.123 106.437 210.518ZM132.615 270.776C138.885 272.137 146.513 266.896 149.582 265.675C150.397 265.351 151.052 265.114 151.133 264.52C151.521 263.462 150.552 263.077 149.292 263.077C148.033 262.979 146.675 263.557 146.481 264.232C145.97 264.542 144.885 265.339 144.637 265.675C144.353 265.768 141.043 267.688 140.761 267.408C140.881 266.569 139.305 267.696 138.141 267.408C136.978 267.215 135.524 267.31 134.555 267.601C133.617 267.725 132.178 266.116 131.162 265.965C128.645 266.028 128.771 264.205 127.671 264.52L128.059 264.425C127.393 263.703 125.795 262.046 124.86 261.246C124.568 260.478 123.598 259.323 123.598 259.323C122.854 257.295 121.167 255.145 120.399 252.776C120.303 252.391 119.817 250.658 119.527 249.407C118.867 246.697 118.592 244.979 118.17 242.38C117.301 240.14 117.345 237.749 117.2 235.256C116.832 232.267 116.643 228.594 116.52 225.728C116.24 223.648 116.793 221.852 115.649 219.758C115.543 217.952 115.455 216.587 113.807 213.309C121.165 210.874 131.093 202.089 128.677 194.979C127.602 191.81 122.466 190.589 119.429 190.879C116.866 190.865 114.205 190.987 112.062 191.747C110.316 192.408 108.232 192.088 106.243 192.325L105.274 193.19C104.692 194.248 104.304 194.633 103.916 194.731H103.626C103.528 194.826 103.722 194.826 103.722 194.826C102.463 194.923 101.881 195.308 101.203 195.693C100.231 196.364 98.6819 196.702 98.1001 197.426C97.2973 198.85 94.2138 199.917 92.7678 200.41L92.6696 200.315C91.992 201.468 92.1859 201.66 92.8635 202.913C93.1557 203.876 98.488 203.393 98.5837 202.623C99.2392 202.813 98.4438 201.902 98.9716 202.045C99.3448 201.58 100.828 200.958 101.009 200.697C102.075 198.869 105.468 199.159 106.729 199.159C108.475 199.159 106.148 196.849 105.662 197.714C105.468 198.389 105.662 198.484 105.08 198.582C104.79 198.677 104.014 198.774 103.916 198.967C102.88 201.653 100.211 208.675 99.1656 211.191C98.3873 212.307 98.6451 214.218 98.0019 215.234C97.8079 216.39 97.614 216.775 97.3243 217.833C94.8374 222.162 94.4175 225.742 92.7678 229.384C92.0877 230.637 90.9241 232.755 91.0223 233.332C91.2162 234.485 90.7301 235.738 90.5362 236.123C89.5664 237.279 89.5664 237.856 89.2767 238.914C88.8888 241.225 88.5967 243.15 89.1785 245.461C90.1753 247.44 94.4544 246.892 95.3848 244.691C95.9814 242.046 96.2539 239.602 96.7424 237.086C97.2457 236.857 98.4585 231.785 98.9716 230.924C100.106 227.195 101.711 223.729 102.946 220.241C103.14 218.7 104.208 215.812 104.984 213.886C108.706 215.349 107.667 218.893 108.86 223.897C109.545 226.615 108.9 230.005 108.959 232.85C108.765 237.566 109.764 242.037 110.994 246.809C111.232 247.687 111.831 250.019 111.77 249.985C112.919 254.463 114.583 258.575 117.684 262.691C118.933 264.902 124.084 268.756 124.084 268.756C124.177 269.789 126.107 269.685 126.993 269.911C128.687 270.511 130.69 270.862 132.615 270.776ZM46.422 223.224C46.1323 223.224 43.9989 222.647 44.4825 221.876L47.3917 217.062L48.0693 216.1C48.7714 212.899 51.0128 211.951 53.2101 210.903C53.7895 210.923 54.7125 213.47 53.7919 214.559C53.188 215.237 53.1021 215.919 52.724 216.677C51.9752 218.544 51.251 220.387 50.4948 221.971C49.719 223.897 48.3614 223.512 46.422 223.224ZM7.25214 247.002L12.6826 245.941C12.6826 245.654 12.8766 244.979 12.8766 245.076L12.7784 244.979C14.5165 244.42 16.8586 243.665 18.3046 242.86C19.3726 241.803 19.6623 241.803 20.632 241.32C25.2302 239.299 31.412 234.778 34.7876 231.694C35.0773 231.309 31.8784 231.887 32.1706 232.657C32.3572 233.098 33.0004 237.142 33.236 237.664C33.4374 238.536 34.1616 240.647 34.0118 241.512L35.5634 243.823C35.6321 243.801 36.079 243.599 36.1452 243.631H35.8531C42.0643 247.835 52.3508 244.715 57.5726 241.417C58.125 241.157 59.4581 240.096 59.8018 239.877L59.9 239.974L59.9958 239.877C63.1848 237.215 64.9647 234.663 66.4917 231.407C67.7536 229.769 68.1415 228.614 67.9476 226.883C67.9476 226.978 67.0736 226.498 66.8796 226.498C66.5899 226.498 66.202 226.593 65.9099 226.69C65.6202 226.785 64.9401 227.843 65.1341 227.748C63.4868 228.518 60.0939 233.718 60.2879 233.813C59.5735 234.276 60.2732 235.919 59.5121 236.026C57.9605 236.316 50.4948 240.55 48.9433 240.07C47.5856 240.36 46.7141 240.455 45.6462 240.647C43.39 240.896 40.39 241.773 40.2181 239.587C40.1199 239.107 40.1199 239.299 39.8302 238.914C39.4423 237.951 39.4423 236.701 39.8302 236.026C40.196 233.554 40.0364 229.043 41.6715 227.363C42.2533 227.748 44.1928 228.518 44.8704 228.614C46.422 228.999 47.5856 228.326 48.5554 227.843C49.5496 227.195 54.3541 225.752 54.7616 224.667C55.8271 223.319 56.3108 222.357 56.6987 221.586C59.0702 219.875 60.4524 217.172 61.2576 214.944C62.8755 212.117 62.1954 207.023 57.8623 206.572C56.1978 205.563 53.6225 206.238 52.3361 207.437C50.4948 208.207 48.7493 208.88 47.8778 210.035C47.3917 210.71 47.1977 210.806 46.5202 211.288C44.5782 212.463 43.1396 213.677 41.7672 215.427C40.7312 217.026 39.2165 218.31 38.2787 219.758C37.3408 221.967 36.1772 223.09 35.2713 224.765C34.2696 227.468 33.2901 228.47 31.4905 230.154L28.1934 232.562C27.0028 233.055 23.087 234.656 22.5715 234.968C17.794 237.266 12.0173 239.477 6.7685 238.819C7.32825 234.941 11.9118 225.81 11.7129 225.92C11.9437 223.032 13.8316 220.236 14.2342 217.93L14.33 218.025C15.4715 216.633 15.3684 216.005 15.3954 214.849C15.69 214.342 15.9552 213.472 16.0755 213.116C16.4339 212.668 16.7285 211.756 16.947 211.383C16.947 211.383 16.1712 211.768 16.4634 211.866C17.0035 211.074 17.6074 209.182 18.2089 208.592C19.6672 205.129 21.6901 201.753 22.9593 198.582L22.4733 198.967C22.6549 199.123 24.2261 195.893 24.317 195.886C25.2671 194.36 25.7409 193.814 25.7703 192.517C27.5699 190.543 29.7352 187.479 31.1026 185.393C31.9226 184.318 31.4488 183.499 31.2966 182.312C31.2008 182.024 30.619 181.927 29.939 181.927C27.4201 181.832 26.7401 182.794 26.4504 183.179C25.7924 185.5 22.6721 185.995 22.6672 188.184C22.6672 188.088 22.5715 188.184 22.1836 188.761L21.3096 189.629L19.8562 192.42C17.8554 195.742 15.4593 199.432 13.6524 202.72C13.5542 202.913 13.6524 202.913 13.4584 203.008C13.3602 203.201 12.9723 203.683 12.9723 203.586C12.7735 205.485 11.5607 206.813 10.7432 208.207V208.4C10.645 208.495 10.645 208.207 10.645 208.4L9.77345 212.153C7.0091 216.573 6.73168 219.692 4.92479 224.09C3.34866 227.868 1.05322 231.127 0.466474 235.063C-0.913246 237.649 1.30118 241.586 0.368273 244.593C-0.355957 246.456 2.52132 246.378 4.05325 246.424C4.73084 246.424 5.11873 246.424 5.99272 246.712C6.34133 246.882 6.95754 247.131 7.25214 247.002ZM262.827 247.097C264.079 246.67 267.035 246.841 268.063 245.556C273.789 242.592 274.417 241.283 276.69 240.36L277.176 240.167C279.018 237.098 281.559 235.131 282.413 232.947C283.282 230.685 285.05 229.043 284.156 226.883C284.06 226.593 283.672 226.015 283.285 225.63C282.693 225.803 281.711 225.537 280.957 226.4C280.28 227.556 279.892 228.518 279.406 228.999C277.149 231.811 274.14 233.481 273.202 236.316C272.934 236.484 272.784 236.572 272.522 236.701C272.426 236.796 272.522 236.894 272.328 236.989C271.844 237.181 271.844 236.989 271.164 237.664C270.543 238.098 269.183 238.463 268.839 238.722C268.159 239.299 267.288 239.782 266.608 240.07C266.414 240.455 266.414 240.55 266.026 240.647C263.524 242.105 260.097 242.709 261.275 238.722C261.329 236.404 260.971 233.501 262.149 231.502C263.144 229.937 262.923 229.535 263.021 227.843C263.502 227.234 265.915 221.062 266.608 221.201L267.482 221.106C268.346 220.092 268.886 218.978 269.517 217.93C271.567 214.147 271.353 215.956 270.194 212.058L270.099 212.153C270.099 212.153 269.517 211.481 269.129 211.191C268.989 209.774 264.435 209.731 262.925 209.94C261.16 210.359 262.503 204.585 262.343 203.586C263.797 203.008 263.603 202.816 263.504 202.238C263.554 200.081 264.823 198.518 261.857 196.559C261.135 196.425 259.584 196.088 259.046 196.656C258.852 196.849 258.948 197.136 258.56 197.136C258.366 197.426 258.172 197.714 258.366 197.714C254.281 198.964 253.822 203.998 253.228 207.052C253.228 207.339 253.616 208.11 255.265 208.495L254.878 208.785C254.878 208.977 255.749 210.228 256.525 211.673C256.409 211.915 256.044 213.618 255.847 213.694C255.396 214.917 254.364 216.599 254.004 217.64C252.003 221.153 249.933 223.034 247.895 225.92C246.309 227.795 245.224 230.503 243.727 231.599C242.833 232.506 241.124 233.53 240.334 234.198C238.638 235.575 236.512 237.466 234.614 238.049C231.007 239.236 232.39 240.301 231.317 240.36C229.542 240.457 227.828 240.915 226.274 241.225C225.403 241.32 225.692 241.127 225.304 240.167C225.209 240.07 225.11 239.877 225.11 239.684C224.688 238.678 223.37 236.345 223.657 235.063C225.12 232.275 226.053 228.221 227.826 226.208C228.506 225.438 228.506 225.438 228.894 225.92C230.403 227.578 233.477 226.915 235.485 227.075C236.914 226.988 237.756 225.932 238.782 225.342C239.696 224.592 240.138 224.445 240.818 223.802L243.145 219.951C244.886 217.933 244.537 218.498 245.18 216.197C245.669 215.071 246.597 214.133 246.636 213.021C246.538 211.768 246.538 210.42 246.636 209.072C246.83 208.015 246.538 207.822 245.666 207.149C243.727 206.201 241.689 204.4 239.072 205.126C237.425 205.511 236.067 206.187 235.196 206.667L233.158 207.437L231.025 209.072C230.386 209.589 230.342 209.572 230.153 210.325C229.412 211.001 227.19 213.365 226.662 213.982C226.441 215.929 225.231 217.101 224.433 218.41C223.166 221.464 221.367 224.475 220.166 227.461L218.227 234.005V234.39C218.131 234.583 218.131 234.005 218.131 234.678C216.773 236.603 215.899 237.566 214.252 237.664C208.139 241.201 205.556 241.922 205.721 241.225C205.816 241.417 204.459 240.935 204.363 241.127L204.847 240.84C204.822 240.598 204.611 239.899 204.751 239.589C205.816 237.664 206.398 236.123 206.592 234.678C206.794 232.706 208.74 231.665 208.24 229.674C208.242 229.289 208.436 228.614 208.532 228.421C210.319 225.915 209.821 224.801 210.665 222.164C210.859 221.586 211.149 220.914 211.149 220.721C211.537 218.41 211.343 219.181 209.985 218.218C209.307 218.025 209.018 218.123 208.824 218.123C208.63 218.218 209.018 218.218 208.726 217.64C206.303 216.677 204.265 217.738 203.005 218.7C200.374 221.143 197.57 221.457 195.54 223.417C195.206 223.848 194.653 224.036 194.086 224.38C192.928 222.924 195.144 219.166 195.54 217.738C195.987 216.273 196.482 214.969 197.091 213.789C197.091 213.789 197.867 213.501 198.255 211.673C198.351 210.325 200.001 207.244 200.001 207.339C200.194 205.511 200.484 204.646 201.26 203.393C201.203 203.437 200.879 203.954 200.776 203.876C201.859 203.018 202.416 200.434 202.618 199.64C203.393 199.062 203.975 196.366 204.459 195.501C204.955 194.338 205.794 193.439 206.303 192.517C207.822 190.892 208.652 187.46 205.915 187.413C203.467 187.233 200.32 188.31 199.419 189.822L199.514 189.917C198.933 190.302 198.739 190.302 198.351 190.879L198.255 190.784C198.28 190.848 198.093 191.355 198.061 191.264L198.157 191.457C197.285 192.612 196.897 193.48 196.605 194.055C195.302 197.217 193.531 200.183 192.923 203.298L192.824 203.106C192.824 203.298 192.729 203.491 192.729 203.683C192.999 203.654 192.739 203.954 192.729 204.068C192.729 204.454 192.631 204.646 192.631 204.934C192.341 205.987 192.697 207.464 191.953 208.4C191.467 209.555 190.983 210.613 191.079 211.673C191.123 212.383 190.73 212.719 190.497 213.309C189.486 214.598 189.346 215.829 189.044 217.16C188.032 218.262 188.074 219.419 187.59 220.624C186.94 223.261 185.857 225.884 185.069 228.228C184.151 229.983 184.119 231.363 183.518 232.947C182.13 235.299 181.531 236.813 180.608 238.722C179.378 241.127 178.74 242.736 178.961 244.979C178.961 244.786 179.349 245.171 179.543 245.269H181.676C181.431 247.187 185.594 244.216 186.522 244.113C186.635 243.77 187.703 243.014 187.59 243.15C187.743 242.044 187.762 241.04 188.172 240.262C188.501 238.887 189.41 237.832 189.238 236.316C189.275 233.493 191.867 231.141 192.923 229.289C193.46 228.306 195.034 227.658 195.734 227.075C197.241 225.966 199.401 224.163 200.678 223.127C201.766 221.828 204.609 221.218 203.587 223.512C202.863 225.267 202.5 230.271 201.744 231.985C201.221 234.98 197.575 240.742 199.031 242.86C202.09 247.545 208.91 243.879 212.506 241.61C213.601 241.398 217.942 236.918 217.451 239.397C217.07 241.391 218.578 242.595 219.876 243.921C220.841 245.035 221.73 245.897 223.851 246.039C225.746 245.927 229.569 246.231 231.412 245.941C233.674 245.203 235.461 244.447 237.231 243.631L237.521 243.823C237.714 243.343 238.007 242.475 238.007 242.573C238.952 241.785 241.593 239.47 242.369 238.819C246.8 236.504 248.219 233.276 250.611 229.866C253.716 226.205 255.108 222.691 257.301 218.893C258.108 217.206 259.94 215.42 260.404 213.694C260.887 212.346 261.275 212.058 262.051 212.153C263.418 212.514 263.271 215.812 262.537 216.39L262.633 216.485C261.29 217.128 260.76 218.037 260.404 219.086H260.499C259.51 219.692 259.653 220.092 259.336 220.816C259.017 222.037 258.494 223.804 257.784 224.282C257.151 226.013 256.638 227.678 255.943 229.191C254.622 233.586 251.649 241.508 256.815 244.979C259.382 247.708 259.25 247.002 262.827 247.097Z" fill="black"/>
</svg>
