<svg width="456" height="142" viewBox="0 0 456 142" fill="none" xmlns="http://www.w3.org/2000/svg">
<path d="M0.0125523 111.738C62.457 89.538 122.904 62.8392 181.656 31.7755C192.972 25.7903 204.1 19.4437 214.737 12.1464C217.463 10.2852 218.807 8.23661 218.518 4.60804C218.166 0.216264 218.581 0.0422024 222.587 0.0288129C226.568 0.0288129 230.537 0.095755 234.518 0.00202802C236.804 -0.0515302 237.997 0.952693 237.57 3.3762C236.729 8.07594 238.989 10.6066 242.468 12.9229C258.871 23.8756 276.19 32.9537 293.634 41.7775C341.159 65.8117 389.662 87.3288 439.384 105.672C444.898 107.708 450.461 109.609 456 111.577C455.95 112.381 455.309 112.595 454.807 112.943C439.472 123.347 423.899 133.242 406.605 139.682C395.326 143.886 384.978 142.253 374.855 135.745C326.828 104.896 278.727 74.1936 230.675 43.3842C228.829 42.2059 227.535 42.2193 225.689 43.3842C177.725 74.1133 129.649 104.655 81.7605 135.518C69.3143 143.538 57.0816 143.458 44.0954 137.66C28.8108 130.831 14.5687 122.061 0.690761 112.515C0.439576 112.34 0.276303 112.046 0 111.698L0.0125523 111.738Z" fill="#FA5050"/>
</svg>
